<?xml version="1.0" encoding="utf-8"?>
<!-- Generator: Adobe Illustrator 24.2.1, SVG Export Plug-In . SVG Version: 6.00 Build 0)  -->
<svg version="1.1" id="Layer_1" xmlns="http://www.w3.org/2000/svg" xmlns:xlink="http://www.w3.org/1999/xlink" x="0px" y="0px"
	 viewBox="0 0 500 500" style="enable-background:new 0 0 500 500;" xml:space="preserve">
<style type="text/css">
	.st0{fill:#FFFFFF;}
	.st1{fill:none;stroke:#010101;stroke-width:0.6131;stroke-linecap:round;stroke-linejoin:round;stroke-miterlimit:10;}
</style>
<g>
	<g>
		<g>
			<g>
				<rect x="241.7" y="226.2" class="st0" width="32" height="32"/>
				<rect x="241.7" y="226.2" class="st1" width="32" height="32"/>
			</g>
			<g>
				<rect x="225.6" y="242.2" class="st0" width="32" height="32"/>
				<rect x="225.6" y="242.2" class="st1" width="32" height="32"/>
			</g>
			<g>
				<polygon class="st0" points="225.6,274.3 225.6,242.2 241.7,226.2 241.7,258.2 				"/>
				<polygon class="st1" points="225.6,274.3 225.6,242.2 241.7,226.2 241.7,258.2 				"/>
			</g>
			<g>
				<polygon class="st0" points="257.7,242.2 225.6,242.2 241.7,226.2 273.7,226.2 				"/>
				<polygon class="st1" points="257.7,242.2 225.6,242.2 241.7,226.2 273.7,226.2 				"/>
			</g>
			<g>
				<polygon class="st0" points="225.6,274.3 257.7,274.3 273.7,258.2 241.7,258.2 				"/>
				<polygon class="st1" points="225.6,274.3 257.7,274.3 273.7,258.2 241.7,258.2 				"/>
			</g>
			<g>
				<polygon class="st0" points="257.7,274.3 257.7,242.2 273.7,226.2 273.7,258.2 				"/>
				<polygon class="st1" points="257.7,274.3 257.7,242.2 273.7,226.2 273.7,258.2 				"/>
			</g>
		</g>
		<g>
			<rect x="241.7" y="226.2" class="st0" width="32" height="32"/>
			<rect x="241.7" y="226.2" class="st1" width="32" height="32"/>
		</g>
	</g>
</g>
</svg>
