<svg xmlns="http://www.w3.org/2000/svg" viewBox="0 0 38.67 38.67"><title>3</title><g id="af95f10a-c8cd-47a7-b26b-9a34eb83fa13" data-name="Extras"><path d="M38.63.31h0a.55.55,0,0,0-.17-.2l-.05,0A.41.41,0,0,0,38.17,0H13l-.06,0h-.07a.42.42,0,0,0-.16.11L.15,12.7a.42.42,0,0,0-.11.16.17.17,0,0,0,0,.07S0,13,0,13s0,0,0,.07V38.17a.39.39,0,0,0,0,.18H0l0,0,0,.05.09.1,0,0,.06,0h0a.65.65,0,0,0,.19,0H25.61a.58.58,0,0,0,.19,0,.64.64,0,0,0,.16-.11L38.52,26a.48.48,0,0,0,.12-.22.15.15,0,0,0,0-.07.14.14,0,0,0,0-.06V.5A.58.58,0,0,0,38.63.31ZM26.11,37V26.11H37Zm-1,.71H1.71L13.26,26.11H25.11Zm-12.55-36V12.56H1.71ZM25.11,13.56V25.11H13.56V13.56ZM1,13.56H12.56V25.4L1,37ZM37.67,25.11H26.11V13.26L37.67,1.71ZM25.4,12.56H13.56V1H37Z" style="fill:#1d1d1b"/><polygon points="1 36.96 12.55 25.4 12.55 13.55 1 13.55 1 36.96" style="fill:#fff"/><polygon points="1.71 12.55 12.55 12.55 12.55 1.71 1.71 12.55" style="fill:#fff"/><polygon points="36.96 26.11 26.11 26.11 26.11 36.96 36.96 26.11" style="fill:#fff"/><polygon points="1.71 37.66 25.11 37.66 25.11 26.11 13.26 26.11 1.71 37.66" style="fill:#fff"/><rect x="13.56" y="1" width="24.11" height="24.11" style="fill:#fff"/><path d="M29.71,9.53l-2.12,1.79c1.45.33,2.73,1.39,2.73,3.81a4.45,4.45,0,0,1-4.77,4.55,4.45,4.45,0,0,1-4.65-3.53l3.19-.91a1.47,1.47,0,0,0,1.34,1.12,1.07,1.07,0,0,0,1.16-1.08,1.09,1.09,0,0,0-1.23-1h-2V11.5l2.06-1.93h-4V6.43h8.24Z" style="fill:#1d1d1b"/></g></svg>