<?xml version="1.0" encoding="UTF-8"?>
<!-- Generator: Adobe Illustrator 24.3.0, SVG Export Plug-In . SVG Version: 6.00 Build 0)  -->
<svg xmlns="http://www.w3.org/2000/svg" xmlns:xlink="http://www.w3.org/1999/xlink" version="1.1" id="Layer_1" x="0px" y="0px" viewBox="0 0 500 500" style="enable-background:new 0 0 500 500;" xml:space="preserve">
<style type="text/css">
	.st0{fill:#FFFFFF;}
	.st1{fill:#1D1D1B;}
</style>
<g id="_x38__1_">
	<g>
		<g>
			<g>
				
					<rect x="245.8" y="178.4" transform="matrix(-1 -1.224647e-16 1.224647e-16 -1 587.2047 452.4953)" class="st0" width="95.7" height="95.7"></rect>
				<path class="st1" d="M341.4,275h-95.7c-0.5,0-0.9-0.4-0.9-0.9v-95.7c0-0.5,0.4-0.9,0.9-0.9h95.7c0.5,0,0.9,0.4,0.9,0.9v95.7      C342.3,274.6,341.9,275,341.4,275z M246.7,273.2h93.8v-93.8h-93.8V273.2z"></path>
			</g>
			<g>
				
					<rect x="197.9" y="226.2" transform="matrix(-1 -1.224647e-16 1.224647e-16 -1 491.5413 548.1574)" class="st0" width="95.7" height="95.7"></rect>
				<path class="st1" d="M293.6,322.8h-95.7c-0.5,0-0.9-0.4-0.9-0.9v-95.7c0-0.5,0.4-0.9,0.9-0.9h95.7c0.5,0,0.9,0.4,0.9,0.9v95.7      C294.5,322.4,294.1,322.8,293.6,322.8z M198.9,321h93.8v-93.8h-93.8V321z"></path>
			</g>
			<g>
				<polygon class="st0" points="197.9,321.9 197.9,226.2 245.8,178.4 245.8,274.1     "></polygon>
				<path class="st1" d="M197.9,322.8c-0.1,0-0.2,0-0.4-0.1c-0.3-0.1-0.6-0.5-0.6-0.8v-95.7c0-0.2,0.1-0.5,0.3-0.6l47.8-47.8      c0.3-0.3,0.7-0.3,1-0.2c0.3,0.1,0.6,0.5,0.6,0.8v95.7c0,0.2-0.1,0.5-0.3,0.6l-47.8,47.8C198.4,322.7,198.2,322.8,197.9,322.8z       M198.9,226.6v93.1l46-46v-93.1L198.9,226.6z"></path>
			</g>
			<g>
				<polygon class="st0" points="293.6,226.2 197.9,226.2 245.8,178.4 341.4,178.4     "></polygon>
				<path class="st1" d="M293.6,227.2h-95.7c-0.4,0-0.7-0.2-0.8-0.6c-0.1-0.3-0.1-0.7,0.2-1l47.8-47.8c0.2-0.2,0.4-0.3,0.6-0.3h95.7      c0.4,0,0.7,0.2,0.8,0.6c0.1,0.3,0.1,0.7-0.2,1l-47.8,47.8C294.1,227.1,293.8,227.2,293.6,227.2z M200.2,225.3h93.1l46-46h-93.1      L200.2,225.3z"></path>
			</g>
			<g>
				<polygon class="st0" points="197.9,321.9 293.6,321.9 341.4,274.1 245.8,274.1     "></polygon>
				<path class="st1" d="M293.6,322.8h-95.7c-0.4,0-0.7-0.2-0.8-0.6c-0.1-0.3-0.1-0.7,0.2-1l47.8-47.8c0.2-0.2,0.4-0.3,0.6-0.3h95.7      c0.4,0,0.7,0.2,0.8,0.6c0.1,0.3,0.1,0.7-0.2,1l-47.8,47.8C294.1,322.7,293.8,322.8,293.6,322.8z M200.2,321h93.1l46-46h-93.1      L200.2,321z"></path>
			</g>
			<g>
				<polygon class="st0" points="293.6,321.9 293.6,226.2 341.4,178.4 341.4,274.1     "></polygon>
				<path class="st1" d="M293.6,322.8c-0.1,0-0.2,0-0.4-0.1c-0.3-0.1-0.6-0.5-0.6-0.8v-95.7c0-0.2,0.1-0.5,0.3-0.6l47.8-47.8      c0.3-0.3,0.7-0.3,1-0.2c0.3,0.1,0.6,0.5,0.6,0.8v95.7c0,0.2-0.1,0.5-0.3,0.6l-47.8,47.8C294.1,322.7,293.8,322.8,293.6,322.8z       M294.5,226.6v93.1l46-46v-93.1L294.5,226.6z"></path>
			</g>
		</g>
		<g>
			
				<rect x="245.8" y="178.4" transform="matrix(-1 -1.224647e-16 1.224647e-16 -1 587.2047 452.4953)" class="st0" width="95.7" height="95.7"></rect>
			<path class="st1" d="M341.4,275h-95.7c-0.5,0-0.9-0.4-0.9-0.9v-95.7c0-0.5,0.4-0.9,0.9-0.9h95.7c0.5,0,0.9,0.4,0.9,0.9v95.7     C342.3,274.6,341.9,275,341.4,275z M246.7,273.2h93.8v-93.8h-93.8V273.2z"></path>
		</g>
	</g>
	<path class="st1" d="M276.3,236.3c0-5.1,2.4-9.4,5.7-11.5c-2.5-1.9-4.5-5.4-4.5-10c0-8.7,6.8-15.6,18.5-15.6   c11.8,0,18.5,6.9,18.5,15.6c0,4.5-2.1,8-4.5,10c3.4,2.2,5.7,6.4,5.7,11.5c0,10.6-7.4,17-19.7,17   C283.7,253.3,276.3,246.9,276.3,236.3z M300.6,236c0-2-1.3-4.2-4.6-4.2c-3.3,0-4.6,2.2-4.6,4.2c0,2.6,1.7,4.1,4.6,4.1   C298.9,240.1,300.6,238.6,300.6,236z M292.1,215.7c0,2.5,1.4,3.6,3.9,3.6c2.5,0,3.9-1.1,3.9-3.6c0-2.1-1.3-3.6-3.9-3.6   S292.1,213.7,292.1,215.7z"></path>
</g>
</svg>
