<svg xmlns="http://www.w3.org/2000/svg" viewBox="0 0 289.77 38.67"><title>exhibitions</title><g id="f1fdeabd-dd16-4696-89db-32911532ec0e" data-name="Extras"><polygon points="264.16 0.5 239.05 0.5 213.94 0.5 188.83 0.5 163.72 0.5 138.61 0.5 113.5 0.5 88.39 0.5 63.28 0.5 38.16 0.5 13.05 0.5 0.5 13.05 0.5 38.16 25.61 38.16 50.72 38.16 75.83 38.16 100.94 38.16 126.05 38.16 151.16 38.16 176.27 38.16 201.38 38.16 226.49 38.16 251.6 38.16 276.71 38.16 289.27 25.61 289.27 0.5 264.16 0.5" style="fill:#fff"/><polygon points="264.37 26.11 262.67 27.8 252.81 37.67 276.21 37.67 276.21 26.11 264.37 26.11" style="fill:none"/><polygon points="226.99 26.11 226.99 36.96 237.84 26.11 226.99 26.11" style="fill:none"/><polyline points="13.55 13.55 13.55 25.11 25.11 25.11" style="fill:none"/><polygon points="239.25 26.11 227.7 37.67 251.1 37.67 251.1 26.11 239.25 26.11" style="fill:none"/><polyline points="51.22 25.11 62.78 25.11 62.78 13.55" style="fill:none"/><polyline points="26.11 25.11 37.66 25.11 37.66 13.55" style="fill:none"/><polyline points="38.66 13.55 38.66 25.11 50.22 25.11" style="fill:none"/><polygon points="277.21 36.96 288.06 26.11 277.21 26.11 277.21 36.96" style="fill:none"/><polygon points="163.92 26.11 152.37 37.67 175.77 37.67 175.77 26.11 163.92 26.11" style="fill:none"/><polygon points="151.66 26.11 151.66 36.96 162.51 26.11 151.66 26.11" style="fill:none"/><polygon points="189.03 26.11 177.48 37.67 200.88 37.67 200.88 26.11 189.03 26.11" style="fill:none"/><polygon points="201.88 26.11 201.88 36.96 212.73 26.11 201.88 26.11" style="fill:none"/><polygon points="214.15 26.11 202.59 37.67 225.99 37.67 225.99 26.11 214.15 26.11" style="fill:none"/><polygon points="252.1 26.11 252.1 36.96 253.09 35.97 262.95 26.11 252.1 26.11" style="fill:none"/><polygon points="176.77 26.11 176.77 36.96 187.62 26.11 176.77 26.11" style="fill:none"/><polyline points="36.96 1 13.55 1 13.55 12.55" style="fill:none"/><polygon points="12.55 13.55 1 13.55 1 36.96 12.55 25.4 12.55 13.55" style="fill:none"/><polygon points="12.55 1.71 1.71 12.55 12.55 12.55 12.55 1.71" style="fill:none"/><polygon points="26.11 26.11 26.11 36.96 36.96 26.11 26.11 26.11" style="fill:none"/><polygon points="13.26 26.11 1.71 37.67 25.11 37.67 25.11 26.11 13.26 26.11" style="fill:none"/><polygon points="38.37 26.11 26.82 37.67 50.22 37.67 50.22 26.11 38.37 26.11" style="fill:none"/><polyline points="62.07 1 38.66 1 38.66 12.55" style="fill:none"/><polygon points="138.81 26.11 127.26 37.67 150.66 37.67 150.66 26.11 138.81 26.11" style="fill:none"/><polygon points="51.22 26.11 51.22 36.96 62.07 26.11 51.22 26.11" style="fill:none"/><polygon points="113.7 26.11 102.15 37.67 125.55 37.67 125.55 26.11 113.7 26.11" style="fill:none"/><polygon points="126.55 26.11 126.55 36.96 137.4 26.11 126.55 26.11" style="fill:none"/><polygon points="101.44 26.11 101.44 36.96 112.29 26.11 101.44 26.11" style="fill:none"/><polygon points="88.59 26.11 77.04 37.67 100.44 37.67 100.44 26.11 88.59 26.11" style="fill:none"/><polygon points="76.33 26.11 76.33 36.96 87.18 26.11 76.33 26.11" style="fill:none"/><polygon points="63.48 26.11 51.93 37.67 75.33 37.67 75.33 26.11 63.48 26.11" style="fill:none"/><path d="M289.73.31h0l0-.06,0,0-.09-.09-.05,0-.06,0h0a.37.37,0,0,0-.18,0H13l-.06,0h-.07a.42.42,0,0,0-.16.11h0L.15,12.7h0a.42.42,0,0,0-.11.16.17.17,0,0,0,0,.07S0,13,0,13s0,0,0,.07V38.17a.39.39,0,0,0,0,.18H0l0,0,0,.05.09.1,0,0,.06,0h0a.65.65,0,0,0,.19,0H276.71a.58.58,0,0,0,.19,0h0a.57.57,0,0,0,.16-.11h0L289.62,26h0a.46.46,0,0,0,.11-.16.13.13,0,0,0,0-.06.64.64,0,0,0,0-.07s0,0,0-.06V.5A.58.58,0,0,0,289.73.31Zm-1,.69V25.11H264.66V1h24.11ZM252.1,26.11H263L253.09,36l-1,1ZM263,1h.71V25.11H239.55V1ZM227,26.11h10.85L227,37ZM238.55,1V25.11H214.44V1h24.11ZM201.88,26.11h10.85L201.88,37ZM213.44,1V25.11H189.33V1h24.11ZM176.77,26.11h10.85L176.77,37ZM188.33,1V25.11H164.22V1h24.11ZM151.66,26.11h10.85L151.66,37ZM163.22,1V25.11H139.11V1h24.11ZM126.55,26.11H137.4L126.55,37ZM138.11,1V25.11H114V1h24.11ZM101.44,26.11h10.85L101.44,37ZM113,1V25.11H88.89V1H113ZM76.33,26.11H87.18L76.33,37ZM87.89,1V25.11H63.78V1H87.89ZM51.22,26.11H62.07L51.22,37ZM62.78,1V25.11H38.67V1H62.78ZM26.11,26.11H37L26.11,37ZM37.67,1V25.11H13.55V1H37.67ZM1,13.56H12.55V25.4L1,37ZM12.55,1.71V12.56H1.71Zm.71,24.4H25.11V37.67H1.71Zm25.11,0H50.22V37.67H26.82Zm25.11,0H75.33V37.67H51.93Zm25.11,0h11.85V37.67H77Zm25.11,0h11.85V37.67h-23.4Zm25.11,0h11.85V37.67h-23.4Zm25.11,0h11.85V37.67h-23.4Zm25.11,0h11.85V37.67h-23.4Zm25.11,0H226V37.67h-23.4Zm25.12,0H251.1V37.67H227.7Zm23.41,1.69,1.7-1.69h11.84V37.67h-23.4ZM277.21,37V26.11h10.85Z" style="fill:#1d1d1b"/><path d="M120.81,6.13h5.36c2.91,0,4.69,1.35,4.69,3.76a3.19,3.19,0,0,1-1.49,2.83,3.14,3.14,0,0,1,1.92,3.06c0,2.91-2.25,4.2-5,4.2h-5.46Zm5.06,5.24a.92.92,0,0,0,1-1,.9.9,0,0,0-1-.95h-1.1v1.95Zm.26,5.3a1.12,1.12,0,0,0,1.13-1.12,1.06,1.06,0,0,0-1.07-1.11h-1.46v2.23Z"/><path d="M21.65,6.13h7.76V9.57H25.59v1.71h3.22V14.7H25.59v1.84h4V20H21.65Z"/><path d="M69.73,6.17h3.92v5.17H78V6.17h3.91V19.94H78V14.79H73.65v5.15H69.73Z"/><path d="M199.41,6.13h3.94V20h-3.94Z"/><path d="M149.19,6.13h3.94V20h-3.94Z"/><path d="M99,6.13h3.94V20H99Z"/><path d="M245.43,6.13h4L253.9,14V6.13h3.87V20h-3.91l-4.57-7.74V20h-3.86Z"/><path d="M219.05,13c0-4,2.9-7.13,7.44-7.13s7.44,3.15,7.44,7.13S231,20.2,226.49,20.2,219.05,17.07,219.05,13Zm4.1,0a3.35,3.35,0,1,0,6.69,0,3.35,3.35,0,1,0-6.69,0Z"/><path d="M275,15.25a2.5,2.5,0,0,0,1.9,1.37c.61,0,.87-.26.87-.62,0-1.4-5.64-1.44-5.64-5.85,0-2.63,1.92-4.27,4.79-4.27a4.77,4.77,0,0,1,4.73,3.36l-3.27,1.46c-.27-.57-.61-1.26-1.56-1.26-.47,0-.75.25-.75.63,0,1.54,5.68,1.46,5.68,5.64,0,2.65-1.76,4.52-5,4.52a5.32,5.32,0,0,1-5.06-3.36Z"/><path d="M174.28,9.57h-2.82V6.13h9.63V9.57h-2.87V20h-3.94Z"/><path d="M48.42,13,44,6.13h4.62l2.08,3.92,2.06-3.92h4.63L53,13.06,57.4,20H53l-2.29-4.06L48.4,20H44.05Z"/></g></svg>