<svg id="e451f22d-66ac-44da-b00a-b99814254584" data-name="Layer 1" xmlns="http://www.w3.org/2000/svg" viewBox="0 0 400 400"><title>hop1</title><rect x="242.9" y="28.52" width="85.8" height="85.8" style="fill:#4b00a5"/><path d="M328.7,115H242.9a.79.79,0,0,1-.8-.8V28.52a.79.79,0,0,1,.8-.8h85.8a.79.79,0,0,1,.8.8v85.8A1,1,0,0,1,328.7,115Zm-85.1-1.5h84.3V29.22H243.6v84.3Z" style="fill:#dc0770"/><rect x="200" y="71.32" width="85.8" height="85.8" style="fill:#4b00a5"/><path d="M285.8,157.92H200a.79.79,0,0,1-.8-.8V71.32a.79.79,0,0,1,.8-.8h85.8a.79.79,0,0,1,.8.8v85.8C286.5,157.52,286.2,157.92,285.8,157.92Zm-85.1-1.5H285V72.12H200.7Z" style="fill:#dc0770"/><polygon points="200 157.12 200 71.32 242.9 28.52 242.9 114.22 200 157.12" style="fill:#4b00a5"/><path d="M200,157.92a.37.37,0,0,1-.3-.1.75.75,0,0,1-.5-.7V71.32a.76.76,0,0,1,.2-.5l42.9-42.9a.78.78,0,0,1,.8-.2.75.75,0,0,1,.5.7v85.8a.76.76,0,0,1-.2.5l-42.9,42.9A.55.55,0,0,1,200,157.92Zm.7-86.2v83.6l41.4-41.4V30.32Z" style="fill:#dc0770"/><polygon points="285.8 71.32 200 71.32 242.9 28.52 328.7 28.52 285.8 71.32" style="fill:#4b00a5"/><path d="M285.8,72.12H200a.75.75,0,0,1-.7-.5.63.63,0,0,1,.2-.8l42.9-42.9a.76.76,0,0,1,.5-.2h85.8a.75.75,0,0,1,.7.5.78.78,0,0,1-.2.8l-42.9,42.9A.76.76,0,0,1,285.8,72.12Zm-84-1.5h83.7l41.4-41.4H243.2Z" style="fill:#dc0770"/><polygon points="200 157.12 285.8 157.12 328.7 114.22 242.9 114.22 200 157.12" style="fill:#4b00a5"/><path d="M285.8,157.92H200a.75.75,0,0,1-.7-.5.63.63,0,0,1,.2-.8l42.9-42.9a.76.76,0,0,1,.5-.2h85.8a.75.75,0,0,1,.7.5.78.78,0,0,1-.2.8l-42.9,42.9A.76.76,0,0,1,285.8,157.92Zm-84-1.5h83.7L326.9,115H243.2Z" style="fill:#dc0770"/><polygon points="285.8 157.12 285.8 71.32 328.7 28.52 328.7 114.22 285.8 157.12" style="fill:#4b00a5"/><path d="M285.8,157.92a.37.37,0,0,1-.3-.1.75.75,0,0,1-.5-.7V71.32a.76.76,0,0,1,.2-.5l42.9-42.9a.78.78,0,0,1,.8-.2.75.75,0,0,1,.5.7v85.8a.76.76,0,0,1-.2.5l-42.9,42.9A.55.55,0,0,1,285.8,157.92Zm.7-86.2v83.6l41.4-41.4V30.32Z" style="fill:#dc0770"/><path d="M328.7,115H242.9a.79.79,0,0,1-.8-.8V28.52a.79.79,0,0,1,.8-.8h85.8a.79.79,0,0,1,.8.8v85.8A1,1,0,0,1,328.7,115Zm-85.1-1.5h84.3V29.22H243.6v84.3Z" style="fill:#dc0770"/><rect x="114.2" y="242.92" width="85.8" height="85.8" style="fill:#4b00a5"/><path d="M200,329.42H114.2a.79.79,0,0,1-.8-.8v-85.8a.79.79,0,0,1,.8-.8H200a.79.79,0,0,1,.8.8v85.8C200.7,329.12,200.4,329.42,200,329.42Zm-85-1.5h84.3v-84.3H115Z" style="fill:#dc0770"/><rect x="71.3" y="285.82" width="85.8" height="85.8" style="fill:#4b00a5"/><path d="M157.1,372.32H71.3a.79.79,0,0,1-.8-.8v-85.8a.79.79,0,0,1,.8-.8h85.8a.79.79,0,0,1,.8.8v85.8A.79.79,0,0,1,157.1,372.32Zm-85-1.5h84.3v-84.3H72.1Z" style="fill:#dc0770"/><polygon points="71.3 371.52 71.3 285.82 114.2 242.92 114.2 328.72 71.3 371.52" style="fill:#4b00a5"/><path d="M71.3,372.32a.37.37,0,0,1-.3-.1.75.75,0,0,1-.5-.7v-85.8a.76.76,0,0,1,.2-.5l42.9-42.9a.78.78,0,0,1,.8-.2.75.75,0,0,1,.5.7v85.8a.76.76,0,0,1-.2.5L71.8,372A.55.55,0,0,1,71.3,372.32Zm.8-86.2v83.6l41.4-41.4v-83.7Z" style="fill:#dc0770"/><polygon points="157.1 285.82 71.3 285.82 114.2 242.92 200 242.92 157.1 285.82" style="fill:#4b00a5"/><path d="M157.1,286.52H71.3a.75.75,0,0,1-.7-.5.63.63,0,0,1,.2-.8l42.9-42.9a.76.76,0,0,1,.5-.2H200a.75.75,0,0,1,.7.5.63.63,0,0,1-.2.8l-42.9,42.9A.76.76,0,0,1,157.1,286.52ZM73.2,285h83.6l41.4-41.4H114.6Z" style="fill:#dc0770"/><polygon points="71.3 371.52 157.1 371.52 200 328.72 114.2 328.72 71.3 371.52" style="fill:#4b00a5"/><path d="M157.1,372.32H71.3a.75.75,0,0,1-.7-.5.63.63,0,0,1,.2-.8l42.9-42.9a.76.76,0,0,1,.5-.2H200a.75.75,0,0,1,.7.5.63.63,0,0,1-.2.8l-42.9,42.9A.76.76,0,0,1,157.1,372.32Zm-83.9-1.5h83.6l41.4-41.4H114.6Z" style="fill:#dc0770"/><polygon points="157.1 371.52 157.1 285.82 200 242.92 200 328.72 157.1 371.52" style="fill:#4b00a5"/><path d="M157.1,372.32a.37.37,0,0,1-.3-.1.75.75,0,0,1-.5-.7v-85.8a.76.76,0,0,1,.2-.5l42.9-42.9a.78.78,0,0,1,.8-.2.75.75,0,0,1,.5.7v85.8a.76.76,0,0,1-.2.5L157.6,372A.55.55,0,0,1,157.1,372.32Zm.8-86.2v83.6l41.4-41.4v-83.7Z" style="fill:#dc0770"/><path d="M200,329.42H114.2a.79.79,0,0,1-.8-.8v-85.8a.79.79,0,0,1,.8-.8H200a.79.79,0,0,1,.8.8v85.8C200.7,329.12,200.4,329.42,200,329.42Zm-85-1.5h84.3v-84.3H115Z" style="fill:#dc0770"/><rect x="114.2" y="157.12" width="85.8" height="85.8" style="fill:#4b00a5"/><path d="M200,243.62H114.2a.79.79,0,0,1-.8-.8V157a.79.79,0,0,1,.8-.8H200a.79.79,0,0,1,.8.8v85.8C200.7,243.32,200.4,243.62,200,243.62Zm-85-1.5h84.3v-84.3H115Z" style="fill:#dc0770"/><rect x="71.3" y="114.22" width="85.8" height="85.8" style="fill:#4b00a5"/><path d="M157.1,200.82H71.3a.79.79,0,0,1-.8-.8v-85.8a.79.79,0,0,1,.8-.8h85.8a.79.79,0,0,1,.8.8V200A.86.86,0,0,1,157.1,200.82Zm-85-1.5h84.3V115H72.1Z" style="fill:#dc0770"/><polygon points="71.3 114.22 71.3 200.02 114.2 242.92 114.2 157.12 71.3 114.22" style="fill:#4b00a5"/><path d="M114.2,243.62a.76.76,0,0,1-.5-.2l-42.9-42.9a.76.76,0,0,1-.2-.5v-85.8a.75.75,0,0,1,.5-.7.63.63,0,0,1,.8.2l42.9,42.9a.76.76,0,0,1,.2.5v85.8a.75.75,0,0,1-.5.7Zm-42.1-43.9,41.4,41.4v-83.6l-41.4-41.4Z" style="fill:#dc0770"/><polygon points="157.1 200.02 71.3 200.02 114.2 242.92 200 242.92 157.1 200.02" style="fill:#4b00a5"/><path d="M200,243.62H114.2a.76.76,0,0,1-.5-.2l-42.9-42.9a.78.78,0,0,1-.2-.8.75.75,0,0,1,.7-.5h85.8a.76.76,0,0,1,.5.2l42.9,42.9a.78.78,0,0,1,.2.8A.75.75,0,0,1,200,243.62Zm-85.5-1.5h83.6l-41.4-41.4H73.1Z" style="fill:#dc0770"/><polygon points="71.3 114.22 157.1 114.22 200 157.12 114.2 157.12 71.3 114.22" style="fill:#4b00a5"/><path d="M200,157.92H114.2a.76.76,0,0,1-.5-.2l-42.9-42.9a.78.78,0,0,1-.2-.8.75.75,0,0,1,.7-.5h85.8a.76.76,0,0,1,.5.2l42.9,42.9a.78.78,0,0,1,.2.8A.75.75,0,0,1,200,157.92Zm-85.5-1.5h83.6L156.7,115H73.1Z" style="fill:#dc0770"/><polygon points="157.1 114.22 157.1 200.02 200 242.92 200 157.12 157.1 114.22" style="fill:#4b00a5"/><path d="M200,243.62a.76.76,0,0,1-.5-.2l-42.9-42.9a.76.76,0,0,1-.2-.5v-85.8a.75.75,0,0,1,.5-.7.63.63,0,0,1,.8.2l42.9,42.9a.76.76,0,0,1,.2.5v85.8a.75.75,0,0,1-.5.7Zm-42.1-43.9,41.4,41.4v-83.6l-41.4-41.4Z" style="fill:#dc0770"/><path d="M200,243.62H114.2a.79.79,0,0,1-.8-.8V157a.79.79,0,0,1,.8-.8H200a.79.79,0,0,1,.8.8v85.8C200.7,243.32,200.4,243.62,200,243.62Zm-85-1.5h84.3v-84.3H115Z" style="fill:#dc0770"/><rect x="242.9" y="200.02" width="85.8" height="85.8" style="fill:#4b00a5"/><path d="M328.7,286.52H242.9a.79.79,0,0,1-.8-.8v-85.8a.79.79,0,0,1,.8-.8h85.8a.79.79,0,0,1,.8.8v85.8C329.4,286.22,329.1,286.52,328.7,286.52ZM243.6,285h84.3v-84.3H243.6V285Z" style="fill:#dc0770"/><rect x="200" y="157.12" width="85.8" height="85.8" style="fill:#4b00a5"/><path d="M285.8,243.62H200a.79.79,0,0,1-.8-.8V157a.79.79,0,0,1,.8-.8h85.8a.79.79,0,0,1,.8.8v85.8C286.5,243.32,286.2,243.62,285.8,243.62Zm-85.1-1.5H285v-84.3H200.7Z" style="fill:#dc0770"/><polygon points="200 157.12 200 242.92 242.9 285.82 242.9 200.02 200 157.12" style="fill:#4b00a5"/><path d="M242.9,286.52a.76.76,0,0,1-.5-.2l-42.9-42.9a.76.76,0,0,1-.2-.5v-85.8a.75.75,0,0,1,.5-.7.63.63,0,0,1,.8.2l42.9,42.9a.76.76,0,0,1,.2.5v85.8a.75.75,0,0,1-.5.7Zm-42.2-43.9L242.1,284v-83.7l-41.4-41.4v83.7Z" style="fill:#dc0770"/><polygon points="285.8 242.92 200 242.92 242.9 285.82 328.7 285.82 285.8 242.92" style="fill:#4b00a5"/><path d="M328.7,286.52H242.9a.76.76,0,0,1-.5-.2l-42.9-42.9a.78.78,0,0,1-.2-.8.75.75,0,0,1,.7-.5h85.8a.76.76,0,0,1,.5.2l42.9,42.9a.78.78,0,0,1,.2.8C329.2,286.32,329,286.52,328.7,286.52ZM243.2,285h83.7l-41.4-41.4H201.8Z" style="fill:#dc0770"/><polygon points="200 157.12 285.8 157.12 328.7 200.02 242.9 200.02 200 157.12" style="fill:#4b00a5"/><path d="M328.7,200.82H242.9a.76.76,0,0,1-.5-.2l-42.9-42.9a.78.78,0,0,1-.2-.8.75.75,0,0,1,.7-.5h85.8a.76.76,0,0,1,.5.2l42.9,42.9a.78.78,0,0,1,.2.8C329.2,200.62,329,200.82,328.7,200.82Zm-85.5-1.5h83.7l-41.4-41.4H201.8Z" style="fill:#dc0770"/><polygon points="285.8 157.12 285.8 242.92 328.7 285.82 328.7 200.02 285.8 157.12" style="fill:#4b00a5"/><path d="M328.7,286.52a.76.76,0,0,1-.5-.2l-42.9-42.9a.76.76,0,0,1-.2-.5v-85.8a.75.75,0,0,1,.5-.7.63.63,0,0,1,.8.2l42.9,42.9a.76.76,0,0,1,.2.5v85.8a.75.75,0,0,1-.5.7Zm-42.2-43.9L327.9,284v-83.7l-41.4-41.4Z" style="fill:#dc0770"/><path d="M328.7,286.52H242.9a.79.79,0,0,1-.8-.8v-85.8a.79.79,0,0,1,.8-.8h85.8a.79.79,0,0,1,.8.8v85.8C329.4,286.22,329.1,286.52,328.7,286.52ZM243.6,285h84.3v-84.3H243.6V285Z" style="fill:#dc0770"/><polygon points="242.9 114.22 242.9 157.12 200 157.12 200 114.22 157.1 114.22 157.1 242.92 200 242.92 200 200.02 242.9 200.02 242.9 242.92 285.8 242.92 285.8 114.22 242.9 114.22" style="fill:#dc0770"/><path d="M285.8,243.62H242.9a.79.79,0,0,1-.8-.8v-42.1H200.7v42.1a.79.79,0,0,1-.8.8H157a.79.79,0,0,1-.8-.8V114.22a.79.79,0,0,1,.8-.8h43a.79.79,0,0,1,.8.8v42.1h41.4v-42.1a.79.79,0,0,1,.8-.8h42.9a.79.79,0,0,1,.8.8v128.7A1.07,1.07,0,0,1,285.8,243.62Zm-42.2-1.5H285V115H243.6v42.1a.79.79,0,0,1-.8.8H200a.79.79,0,0,1-.8-.8V115H157.8v127.2h41.4v-42.1a.79.79,0,0,1,.8-.8h42.9a.79.79,0,0,1,.8.8v42Z" style="fill:#dc0770"/></svg>