<svg id="b45aa3d4-2596-42d1-bd60-ab8790dbe6e1" data-name="Layer 1" xmlns="http://www.w3.org/2000/svg" viewBox="0 0 400 400"><title>hop2</title><rect x="50.2" y="178.65" width="85.8" height="85.8" style="fill:#ef79aa"/><path d="M136,265.15H50.2a.79.79,0,0,1-.8-.8v-85.8a.79.79,0,0,1,.8-.8H136a.79.79,0,0,1,.8.8v85.8C136.7,264.75,136.4,265.15,136,265.15Zm-85.1-1.5h84.3v-84.3H50.9Z" style="fill:#e65c0a"/><rect x="7.3" y="221.45" width="85.8" height="85.8" style="fill:#ef79aa"/><path d="M93.1,308.05H7.3a.79.79,0,0,1-.8-.8v-85.8a.79.79,0,0,1,.8-.8H93.1a.79.79,0,0,1,.8.8v85.8C93.8,307.65,93.5,308.05,93.1,308.05ZM8,306.55H92.3v-84.3H8Z" style="fill:#e65c0a"/><polygon points="7.3 307.25 7.3 221.45 50.2 178.65 50.2 264.35 7.3 307.25" style="fill:#ef79aa"/><path d="M7.3,308.05A.37.37,0,0,1,7,308a.75.75,0,0,1-.5-.7v-85.8a.76.76,0,0,1,.2-.5l43-42.9a.78.78,0,0,1,.8-.2.75.75,0,0,1,.5.7v85.8a.76.76,0,0,1-.2.5L7.9,307.75A.86.86,0,0,1,7.3,308.05Zm.7-86.2v83.7l41.4-41.5v-83.7Z" style="fill:#e65c0a"/><polygon points="93.1 221.45 7.3 221.45 50.2 178.65 136 178.65 93.1 221.45" style="fill:#ef79aa"/><path d="M93.1,222.25H7.3a.75.75,0,0,1-.7-.5.63.63,0,0,1,.2-.8l42.9-42.9a.76.76,0,0,1,.5-.2H136a.75.75,0,0,1,.7.5.63.63,0,0,1-.2.8l-42.9,42.9A.76.76,0,0,1,93.1,222.25Zm-84-1.5H92.7l41.4-41.4H50.4Z" style="fill:#e65c0a"/><polygon points="7.3 307.25 93.1 307.25 136 264.35 50.2 264.35 7.3 307.25" style="fill:#ef79aa"/><path d="M93.1,308.05H7.3a.75.75,0,0,1-.7-.5.63.63,0,0,1,.2-.8l42.9-42.9a.76.76,0,0,1,.5-.2H136a.75.75,0,0,1,.7.5.63.63,0,0,1-.2.8l-42.9,42.9A.76.76,0,0,1,93.1,308.05Zm-84-1.5H92.7l41.4-41.4H50.4Z" style="fill:#e65c0a"/><polygon points="93.1 307.25 93.1 221.45 136 178.65 136 264.35 93.1 307.25" style="fill:#ef79aa"/><path d="M93.1,308.05a.37.37,0,0,1-.3-.1.75.75,0,0,1-.5-.7v-85.8a.76.76,0,0,1,.2-.5l42.9-42.9a.78.78,0,0,1,.8-.2.75.75,0,0,1,.5.7v85.8a.76.76,0,0,1-.2.5l-42.9,42.9A.55.55,0,0,1,93.1,308.05Zm.7-86.2v83.7l41.4-41.4v-83.7Z" style="fill:#e65c0a"/><path d="M136,265.15H50.2a.79.79,0,0,1-.8-.8v-85.8a.79.79,0,0,1,.8-.8H136a.79.79,0,0,1,.8.8v85.8C136.7,264.75,136.4,265.15,136,265.15Zm-85.1-1.5h84.3v-84.3H50.9Z" style="fill:#e65c0a"/><rect x="178.3" y="221.45" width="85.8" height="85.8" style="fill:#fff"/><path d="M264,308.05H178.2a.79.79,0,0,1-.8-.8v-85.8a.79.79,0,0,1,.8-.8H264a.79.79,0,0,1,.8.8v85.8A.79.79,0,0,1,264,308.05Zm-85-1.5h84.3v-84.3H179Z"/><rect x="135.4" y="264.35" width="85.8" height="85.8" style="fill:#fff"/><path d="M221.2,350.85H135.4a.79.79,0,0,1-.8-.8v-85.8a.79.79,0,0,1,.8-.8h85.8a.79.79,0,0,1,.8.8v85.8C221.9,350.55,221.6,350.85,221.2,350.85Zm-85.1-1.5h84.3v-84.3H136.1v84.3Z"/><polygon points="135.4 350.15 135.4 264.35 178.3 221.45 178.3 307.25 135.4 350.15" style="fill:#fff"/><path d="M135.4,350.85a.37.37,0,0,1-.3-.1.75.75,0,0,1-.5-.7v-85.8a.76.76,0,0,1,.2-.5l42.9-42.9a.78.78,0,0,1,.8-.2.75.75,0,0,1,.5.7v85.8a.76.76,0,0,1-.2.5l-42.9,42.9C135.8,350.85,135.6,350.85,135.4,350.85Zm.7-86.2v83.6l41.4-41.4v-83.7Z"/><polygon points="221.2 264.35 135.4 264.35 178.3 221.45 264 221.45 221.2 264.35" style="fill:#fff"/><path d="M221.2,265.15H135.4a.75.75,0,0,1-.7-.5.63.63,0,0,1,.2-.8L177.8,221a.76.76,0,0,1,.5-.2H264a.75.75,0,0,1,.7.5.78.78,0,0,1-.2.8L221.6,265A.52.52,0,0,1,221.2,265.15Zm-84-1.5h83.7l41.4-41.4H178.6Z"/><polygon points="135.4 350.15 221.2 350.15 264 307.25 178.3 307.25 135.4 350.15" style="fill:#fff"/><path d="M221.2,350.85H135.4a.75.75,0,0,1-.7-.5.63.63,0,0,1,.2-.8l42.9-42.9a.76.76,0,0,1,.5-.2H264a.75.75,0,0,1,.7.5.78.78,0,0,1-.2.8l-42.9,42.9C221.5,350.85,221.4,350.85,221.2,350.85Zm-84-1.5h83.7L262.3,308H178.6Z"/><polygon points="221.2 350.15 221.2 264.35 264 221.45 264 307.25 221.2 350.15" style="fill:#fff"/><path d="M221.2,350.85a.37.37,0,0,1-.3-.1.75.75,0,0,1-.5-.7v-85.8a.76.76,0,0,1,.2-.5l42.9-42.9a.78.78,0,0,1,.8-.2.75.75,0,0,1,.5.7v85.8a.76.76,0,0,1-.2.5l-42.9,42.9C221.5,350.85,221.4,350.85,221.2,350.85Zm.7-86.2v83.6l41.4-41.4v-83.7Z"/><path d="M264,308.05H178.2a.79.79,0,0,1-.8-.8v-85.8a.79.79,0,0,1,.8-.8H264a.79.79,0,0,1,.8.8v85.8A.79.79,0,0,1,264,308.05Zm-85-1.5h84.3v-84.3H179Z"/><rect x="264" y="221.45" width="85.8" height="85.8" style="fill:#ef79aa"/><path d="M349.8,308.05H264a.79.79,0,0,1-.8-.8v-85.8a.79.79,0,0,1,.8-.8h85.8a.79.79,0,0,1,.8.8v85.8A.86.86,0,0,1,349.8,308.05Zm-85-1.5h84.3v-84.3H264.8Z" style="fill:#e65c0a"/><rect x="221.2" y="264.35" width="85.8" height="85.8" style="fill:#ef79aa"/><path d="M306.9,350.85H221.1a.79.79,0,0,1-.8-.8v-85.8a.79.79,0,0,1,.8-.8h85.8a.79.79,0,0,1,.8.8v85.8A.79.79,0,0,1,306.9,350.85Zm-85-1.5h84.3v-84.3H221.9v84.3Z" style="fill:#e65c0a"/><polygon points="221.2 350.15 221.2 264.35 264 221.45 264 307.25 221.2 350.15" style="fill:#ef79aa"/><path d="M221.2,350.85a.37.37,0,0,1-.3-.1.75.75,0,0,1-.5-.7v-85.8a.76.76,0,0,1,.2-.5l42.9-42.9a.78.78,0,0,1,.8-.2.75.75,0,0,1,.5.7v85.8a.76.76,0,0,1-.2.5l-42.9,42.9C221.5,350.85,221.4,350.85,221.2,350.85Zm.7-86.2v83.6l41.4-41.4v-83.7Z" style="fill:#e65c0a"/><polygon points="306.9 264.35 221.2 264.35 264 221.45 349.8 221.45 306.9 264.35" style="fill:#ef79aa"/><path d="M306.9,265.15H221.1a.75.75,0,0,1-.7-.5.63.63,0,0,1,.2-.8L263.5,221a.76.76,0,0,1,.5-.2h85.8a.75.75,0,0,1,.7.5.78.78,0,0,1-.2.8L307.4,265A.76.76,0,0,1,306.9,265.15Zm-83.9-1.5h83.6l41.4-41.4H264.4Z" style="fill:#e65c0a"/><polygon points="221.2 350.15 306.9 350.15 349.8 307.25 264 307.25 221.2 350.15" style="fill:#ef79aa"/><path d="M306.9,350.85H221.1a.75.75,0,0,1-.7-.5.63.63,0,0,1,.2-.8l42.9-42.9a.76.76,0,0,1,.5-.2h85.8a.75.75,0,0,1,.7.5.78.78,0,0,1-.2.8l-42.9,42.9C307.3,350.85,307.1,350.85,306.9,350.85Zm-83.9-1.5h83.6l41.4-41.3H264.4Z" style="fill:#e65c0a"/><polygon points="306.9 350.15 306.9 264.35 349.8 221.45 349.8 307.25 306.9 350.15" style="fill:#ef79aa"/><path d="M306.9,350.85a.37.37,0,0,1-.3-.1.75.75,0,0,1-.5-.7v-85.8a.76.76,0,0,1,.2-.5l42.9-42.9a.78.78,0,0,1,.8-.2.75.75,0,0,1,.5.7v85.8a.76.76,0,0,1-.2.5l-42.9,42.9C307.3,350.85,307.1,350.85,306.9,350.85Zm.8-86.2v83.6l41.4-41.4v-83.7Z" style="fill:#e65c0a"/><path d="M349.8,308.05H264a.79.79,0,0,1-.8-.8v-85.8a.79.79,0,0,1,.8-.8h85.8a.79.79,0,0,1,.8.8v85.8A.86.86,0,0,1,349.8,308.05Zm-85-1.5h84.3v-84.3H264.8Z" style="fill:#e65c0a"/><rect x="221.2" y="92.85" width="85.8" height="85.8" style="fill:#fff"/><path d="M306.9,179.35H221.1a.79.79,0,0,1-.8-.8V92.75a.79.79,0,0,1,.8-.8h85.8a.79.79,0,0,1,.8.8v85.8A.79.79,0,0,1,306.9,179.35Zm-85-1.5h84.3V93.55H221.9v84.3Z"/><rect x="178.3" y="135.75" width="85.8" height="85.8" style="fill:#fff"/><path d="M264,222.25H178.2a.79.79,0,0,1-.8-.8v-85.8a.79.79,0,0,1,.8-.8H264a.79.79,0,0,1,.8.8v85.8A.74.74,0,0,1,264,222.25Zm-85-1.5h84.3v-84.3H179Z"/><polygon points="178.3 221.45 178.3 135.75 221.2 92.85 221.2 178.65 178.3 221.45" style="fill:#fff"/><path d="M178.3,222.25a.37.37,0,0,1-.3-.1.75.75,0,0,1-.5-.7v-85.8a.76.76,0,0,1,.2-.5l42.9-42.9a.78.78,0,0,1,.8-.2.75.75,0,0,1,.5.7v85.8a.76.76,0,0,1-.2.5l-42.9,43A.76.76,0,0,1,178.3,222.25Zm.7-86.2v83.6l41.4-41.4V94.55Z"/><polygon points="264 135.75 178.3 135.75 221.2 92.85 306.9 92.85 264 135.75" style="fill:#fff"/><path d="M264,136.45H178.2a.75.75,0,0,1-.7-.5.63.63,0,0,1,.2-.8l42.9-42.9a.76.76,0,0,1,.5-.2h85.8a.75.75,0,0,1,.7.5.78.78,0,0,1-.2.8l-42.9,42.9A.76.76,0,0,1,264,136.45ZM180.1,135h83.7l41.4-41.4H221.6Z"/><polygon points="178.3 221.45 264 221.45 306.9 178.65 221.2 178.65 178.3 221.45" style="fill:#fff"/><path d="M264,222.25H178.2a.75.75,0,0,1-.7-.5.63.63,0,0,1,.2-.8l42.9-42.9a.76.76,0,0,1,.5-.2h85.8a.75.75,0,0,1,.7.5.78.78,0,0,1-.2.8l-42.8,42.9A1.42,1.42,0,0,1,264,222.25Zm-83.9-1.5h83.7l41.4-41.4H221.6Z"/><polygon points="264 221.45 264 135.75 306.9 92.85 306.9 178.65 264 221.45" style="fill:#fff"/><path d="M264,222.25a.37.37,0,0,1-.3-.1.75.75,0,0,1-.5-.7v-85.8a.76.76,0,0,1,.2-.5l42.9-42.9a.78.78,0,0,1,.8-.2.75.75,0,0,1,.5.7v85.8a.76.76,0,0,1-.2.5l-42.8,43A1.42,1.42,0,0,1,264,222.25Zm.8-86.2v83.6l41.4-41.4V94.55Z"/><path d="M306.9,179.35H221.1a.79.79,0,0,1-.8-.8V92.75a.79.79,0,0,1,.8-.8h85.8a.79.79,0,0,1,.8.8v85.8A.79.79,0,0,1,306.9,179.35Zm-85-1.5h84.3V93.55H221.9v84.3Z"/><rect x="306.9" y="92.85" width="85.8" height="85.8" style="fill:#ef79aa"/><path d="M392.7,179.35H306.9a.79.79,0,0,1-.8-.8V92.75a.79.79,0,0,1,.8-.8h85.8a.79.79,0,0,1,.8.8v85.8A.79.79,0,0,1,392.7,179.35Zm-85-1.5H392V93.55H307.7Z" style="fill:#e65c0a"/><rect x="264" y="135.75" width="85.8" height="85.8" style="fill:#ef79aa"/><path d="M349.8,222.25H264a.79.79,0,0,1-.8-.8v-85.8a.79.79,0,0,1,.8-.8h85.8a.79.79,0,0,1,.8.8v85.8A.79.79,0,0,1,349.8,222.25Zm-85-1.5h84.3v-84.3H264.8Z" style="fill:#e65c0a"/><polygon points="264 221.45 264 135.75 306.9 92.85 306.9 178.65 264 221.45" style="fill:#ef79aa"/><path d="M264,222.25a.37.37,0,0,1-.3-.1.75.75,0,0,1-.5-.7v-85.8a.76.76,0,0,1,.2-.5l42.9-42.9a.78.78,0,0,1,.8-.2.75.75,0,0,1,.5.7v85.8a.76.76,0,0,1-.2.5l-42.8,43A1.42,1.42,0,0,1,264,222.25Zm.8-86.2v83.6l41.4-41.4V94.55Z" style="fill:#e65c0a"/><polygon points="349.8 135.75 264 135.75 306.9 92.85 392.7 92.85 349.8 135.75" style="fill:#ef79aa"/><path d="M349.8,136.45H264a.75.75,0,0,1-.7-.5.78.78,0,0,1,.2-.8l42.9-42.9a.76.76,0,0,1,.5-.2h85.8a.75.75,0,0,1,.7.5.78.78,0,0,1-.2.8l-42.9,42.9A.76.76,0,0,1,349.8,136.45ZM265.9,135h83.6l41.4-41.4H307.2Z" style="fill:#e65c0a"/><polygon points="264 221.45 349.8 221.45 392.7 178.65 306.9 178.65 264 221.45" style="fill:#ef79aa"/><path d="M349.8,222.25H264a.75.75,0,0,1-.7-.5.78.78,0,0,1,.2-.8l42.9-42.9a.76.76,0,0,1,.5-.2h85.8a.75.75,0,0,1,.7.5.78.78,0,0,1-.2.8l-42.9,42.9A.76.76,0,0,1,349.8,222.25Zm-83.9-1.5h83.6l41.4-41.4H307.2Z" style="fill:#e65c0a"/><polygon points="349.8 221.45 349.8 135.75 392.7 92.85 392.7 178.65 349.8 221.45" style="fill:#ef79aa"/><path d="M349.8,222.25a.37.37,0,0,1-.3-.1.75.75,0,0,1-.5-.7v-85.8a.76.76,0,0,1,.2-.5l42.9-42.9a.78.78,0,0,1,.8-.2.75.75,0,0,1,.5.7v85.8a.76.76,0,0,1-.2.5l-42.9,43A.76.76,0,0,1,349.8,222.25Zm.8-86.2v83.6l41.4-41.4V94.55Z" style="fill:#e65c0a"/><path d="M392.7,179.35H306.9a.79.79,0,0,1-.8-.8V92.75a.79.79,0,0,1,.8-.8h85.8a.79.79,0,0,1,.8.8v85.8A.79.79,0,0,1,392.7,179.35Zm-85-1.5H392V93.55H307.7Z" style="fill:#e65c0a"/><rect x="221.2" y="7.05" width="85.8" height="85.8" style="fill:#ef79aa"/><path d="M306.9,93.55H221.1a.79.79,0,0,1-.8-.8V7.05a.79.79,0,0,1,.8-.8h85.8a.79.79,0,0,1,.8.8v85.8A.77.77,0,0,1,306.9,93.55Zm-85-1.5h84.3V7.85H221.9v84.2Z" style="fill:#e65c0a"/><rect x="178.3" y="49.95" width="85.8" height="85.8" style="fill:#ef79aa"/><path d="M264,136.45H178.2a.79.79,0,0,1-.8-.8V50a.79.79,0,0,1,.8-.8H264a.79.79,0,0,1,.8.8v85.8A.71.71,0,0,1,264,136.45ZM179,135h84.3V50.65H179Z" style="fill:#e65c0a"/><polygon points="178.3 135.75 178.3 49.95 221.2 7.05 221.2 92.85 178.3 135.75" style="fill:#ef79aa"/><path d="M178.3,136.45a.37.37,0,0,1-.3-.1.75.75,0,0,1-.5-.7V50a.76.76,0,0,1,.2-.5l42.9-42.9a.78.78,0,0,1,.8-.2.75.75,0,0,1,.5.7v85.8a.76.76,0,0,1-.2.5l-42.9,42.9A.76.76,0,0,1,178.3,136.45Zm.7-86.2V134l41.4-41.4V8.85Z" style="fill:#e65c0a"/><polygon points="264 49.95 178.3 49.95 221.2 7.05 306.9 7.05 264 49.95" style="fill:#ef79aa"/><path d="M264,50.65H178.2a.75.75,0,0,1-.7-.5.63.63,0,0,1,.2-.8l42.9-42.9a.76.76,0,0,1,.5-.2h85.8a.75.75,0,0,1,.7.5.78.78,0,0,1-.2.8l-42.9,42.9C264.4,50.65,264.2,50.65,264,50.65Zm-83.9-1.5h83.7l41.4-41.4H221.6Z" style="fill:#e65c0a"/><polygon points="178.3 135.75 264 135.75 306.9 92.85 221.2 92.85 178.3 135.75" style="fill:#ef79aa"/><path d="M264,136.45H178.2a.75.75,0,0,1-.7-.5.63.63,0,0,1,.2-.8l42.9-42.9a.76.76,0,0,1,.5-.2h85.8a.75.75,0,0,1,.7.5.78.78,0,0,1-.2.8l-42.9,42.9A.76.76,0,0,1,264,136.45ZM180.1,135h83.7l41.4-41.4H221.6Z" style="fill:#e65c0a"/><polygon points="264 135.75 264 49.95 306.9 7.05 306.9 92.85 264 135.75" style="fill:#ef79aa"/><path d="M264,136.45a.37.37,0,0,1-.3-.1.75.75,0,0,1-.5-.7V50a.76.76,0,0,1,.2-.5l42.9-42.9a.78.78,0,0,1,.8-.2.75.75,0,0,1,.5.7v85.8a.76.76,0,0,1-.2.5l-42.9,42.9A.76.76,0,0,1,264,136.45Zm.8-86.2V134l41.4-41.4V8.85Z" style="fill:#e65c0a"/><path d="M306.9,93.55H221.1a.79.79,0,0,1-.8-.8V7.05a.79.79,0,0,1,.8-.8h85.8a.79.79,0,0,1,.8.8v85.8A.77.77,0,0,1,306.9,93.55Zm-85-1.5h84.3V7.85H221.9v84.2Z" style="fill:#e65c0a"/><rect x="135.4" y="264.35" width="85.8" height="85.8" style="fill:#ef79aa"/><path d="M221.2,350.85H135.4a.79.79,0,0,1-.8-.8v-85.8a.79.79,0,0,1,.8-.8h85.8a.79.79,0,0,1,.8.8v85.8C221.9,350.55,221.6,350.85,221.2,350.85Zm-85.1-1.5h84.3v-84.3H136.1v84.3Z" style="fill:#e65c0a"/><rect x="92.5" y="307.25" width="85.8" height="85.8" style="fill:#ef79aa"/><path d="M178.3,393.75H92.5a.79.79,0,0,1-.8-.8v-85.8a.79.79,0,0,1,.8-.8h85.8a.79.79,0,0,1,.8.8v85.9A.85.85,0,0,1,178.3,393.75Zm-85-1.5h84.3v-84.2H93.3Z" style="fill:#e65c0a"/><polygon points="92.5 393.05 92.5 307.25 135.4 264.35 135.4 350.15 92.5 393.05" style="fill:#ef79aa"/><path d="M92.5,393.75a.37.37,0,0,1-.3-.1.75.75,0,0,1-.5-.7v-85.8a.76.76,0,0,1,.2-.5l42.9-42.9a.78.78,0,0,1,.8-.2.75.75,0,0,1,.5.7v85.8a.76.76,0,0,1-.2.5l-42.9,43C92.9,393.75,92.7,393.75,92.5,393.75Zm.8-86.2v83.7l41.4-41.4v-83.6Z" style="fill:#e65c0a"/><polygon points="178.3 307.25 92.5 307.25 135.4 264.35 221.2 264.35 178.3 307.25" style="fill:#ef79aa"/><path d="M178.3,308.05H92.5a.75.75,0,0,1-.7-.5.63.63,0,0,1,.2-.8l42.9-42.9a.76.76,0,0,1,.5-.2h85.8a.75.75,0,0,1,.7.5.63.63,0,0,1-.2.8l-42.9,42.9A.76.76,0,0,1,178.3,308.05Zm-84-1.5H178l41.4-41.4H135.7Z" style="fill:#e65c0a"/><polygon points="92.5 393.05 178.3 393.05 221.2 350.15 135.4 350.15 92.5 393.05" style="fill:#ef79aa"/><path d="M178.3,393.75H92.5a.75.75,0,0,1-.7-.5.63.63,0,0,1,.2-.8l42.9-42.9a.76.76,0,0,1,.5-.2h85.8a.75.75,0,0,1,.7.5.63.63,0,0,1-.2.8l-42.9,42.9C178.7,393.75,178.5,393.75,178.3,393.75Zm-84-1.5H178l41.4-41.4H135.7Z" style="fill:#e65c0a"/><polygon points="178.3 393.05 178.3 307.25 221.2 264.35 221.2 350.15 178.3 393.05" style="fill:#ef79aa"/><path d="M178.3,393.75a.37.37,0,0,1-.3-.1.75.75,0,0,1-.5-.7v-85.8a.76.76,0,0,1,.2-.5l42.9-42.9a.78.78,0,0,1,.8-.2.75.75,0,0,1,.5.7v85.8a.76.76,0,0,1-.2.5l-42.9,42.9C178.7,393.75,178.5,393.75,178.3,393.75Zm.7-86.2v83.7l41.4-41.4v-83.6Z" style="fill:#e65c0a"/><path d="M221.2,350.85H135.4a.79.79,0,0,1-.8-.8v-85.8a.79.79,0,0,1,.8-.8h85.8a.79.79,0,0,1,.8.8v85.8C221.9,350.55,221.6,350.85,221.2,350.85Zm-85.1-1.5h84.3v-84.3H136.1v84.3Z" style="fill:#e65c0a"/><rect x="178.3" y="135.75" width="85.8" height="85.8" style="fill:#ef79aa"/><path d="M264,222.25H178.2a.79.79,0,0,1-.8-.8v-85.8a.79.79,0,0,1,.8-.8H264a.79.79,0,0,1,.8.8v85.8A.74.74,0,0,1,264,222.25Zm-85-1.5h84.3v-84.3H179Z" style="fill:#e65c0a"/><rect x="135.4" y="178.65" width="85.8" height="85.8" style="fill:#ef79aa"/><path d="M221.2,265.15H135.4a.79.79,0,0,1-.8-.8v-85.8a.79.79,0,0,1,.8-.8h85.8a.79.79,0,0,1,.8.8v85.8C221.9,264.75,221.6,265.15,221.2,265.15Zm-85.1-1.5h84.3v-84.3H136.1v84.3Z" style="fill:#e65c0a"/><polygon points="135.4 264.35 135.4 178.65 178.3 135.75 178.3 221.45 135.4 264.35" style="fill:#ef79aa"/><path d="M135.4,265.15a.37.37,0,0,1-.3-.1.75.75,0,0,1-.5-.7v-85.8a.76.76,0,0,1,.2-.5l42.9-42.9a.78.78,0,0,1,.8-.2.75.75,0,0,1,.5.7v85.8a.76.76,0,0,1-.2.5l-42.9,42.9A.55.55,0,0,1,135.4,265.15Zm.7-86.2v83.7l41.4-41.4v-83.6Z" style="fill:#e65c0a"/><polygon points="221.2 178.65 135.4 178.65 178.3 135.75 264 135.75 221.2 178.65" style="fill:#ef79aa"/><path d="M221.2,179.35H135.4a.75.75,0,0,1-.7-.5.63.63,0,0,1,.2-.8l42.9-42.9a.76.76,0,0,1,.5-.2H264a.75.75,0,0,1,.7.5.78.78,0,0,1-.2.8l-42.9,42.9A.52.52,0,0,1,221.2,179.35Zm-84-1.5h83.7l41.4-41.4H178.6Z" style="fill:#e65c0a"/><polygon points="135.4 264.35 221.2 264.35 264 221.45 178.3 221.45 135.4 264.35" style="fill:#ef79aa"/><path d="M221.2,265.15H135.4a.75.75,0,0,1-.7-.5.63.63,0,0,1,.2-.8L177.8,221a.76.76,0,0,1,.5-.2H264a.75.75,0,0,1,.7.5.78.78,0,0,1-.2.8L221.6,265A.52.52,0,0,1,221.2,265.15Zm-84-1.5h83.7l41.4-41.4H178.6Z" style="fill:#e65c0a"/><polygon points="221.2 264.35 221.2 178.65 264 135.75 264 221.45 221.2 264.35" style="fill:#ef79aa"/><path d="M221.2,265.15a.37.37,0,0,1-.3-.1.75.75,0,0,1-.5-.7v-85.8a.76.76,0,0,1,.2-.5l42.9-42.9a.78.78,0,0,1,.8-.2.75.75,0,0,1,.5.7v85.8a.76.76,0,0,1-.2.5l-42.9,42.9C221.5,265.05,221.4,265.15,221.2,265.15Zm.7-86.2v83.7l41.4-41.4v-83.6Z" style="fill:#e65c0a"/><path d="M264,222.25H178.2a.79.79,0,0,1-.8-.8v-85.8a.79.79,0,0,1,.8-.8H264a.79.79,0,0,1,.8.8v85.8A.74.74,0,0,1,264,222.25Zm-85-1.5h84.3v-84.3H179Z" style="fill:#e65c0a"/><polygon points="264 178.65 264 221.45 221.2 221.45 221.2 178.65 178.3 178.65 178.3 307.25 221.2 307.25 221.2 264.35 264 264.35 264 307.25 306.9 307.25 306.9 178.65 264 178.65" style="fill:#e65c0a"/><path d="M306.9,308.05H264a.79.79,0,0,1-.8-.8v-42.1H221.8v42.1a.79.79,0,0,1-.8.8H178.1a.79.79,0,0,1-.8-.8V178.65a.79.79,0,0,1,.8-.8H221a.79.79,0,0,1,.8.8v42.1h41.4v-42.1a.79.79,0,0,1,.8-.8h42.9a.79.79,0,0,1,.8.8v128.7A.86.86,0,0,1,306.9,308.05Zm-42.1-1.5h41.4V179.35H264.8v42.1a.79.79,0,0,1-.8.8H221.1a.79.79,0,0,1-.8-.8v-42.1H179v127.2h41.4v-42.1a.79.79,0,0,1,.8-.8H264a.79.79,0,0,1,.8.8Z" style="fill:#e65c0a"/></svg>