<svg id="fd65499a-5b4b-4e3a-8996-33d6c98249e3" data-name="Layer 1" xmlns="http://www.w3.org/2000/svg" viewBox="0 0 400 400"><title>hop3</title><rect x="264" y="135.75" width="85.8" height="85.8" style="fill:#e91d23"/><path d="M349.8,222.25H264a.79.79,0,0,1-.8-.8v-85.8a.79.79,0,0,1,.8-.8h85.8a.79.79,0,0,1,.8.8v85.8A.79.79,0,0,1,349.8,222.25Zm-85-1.5h84.3v-84.3H264.8Z" style="fill:#63c4f0"/><rect x="306.9" y="92.85" width="85.8" height="85.8" style="fill:#e91d23"/><path d="M392.7,179.35H306.9a.79.79,0,0,1-.8-.8V92.75a.79.79,0,0,1,.8-.8h85.8a.79.79,0,0,1,.8.8v85.8A.79.79,0,0,1,392.7,179.35Zm-85-1.5H392V93.55H307.7Z" style="fill:#63c4f0"/><polygon points="392.7 92.85 392.7 178.65 349.8 221.45 349.8 135.75 392.7 92.85" style="fill:#e91d23"/><path d="M349.8,222.25a.37.37,0,0,1-.3-.1.75.75,0,0,1-.5-.7v-85.8a.76.76,0,0,1,.2-.5l42.9-42.9a.78.78,0,0,1,.8-.2.75.75,0,0,1,.5.7v85.8a.76.76,0,0,1-.2.5L350.3,222A.55.55,0,0,1,349.8,222.25Zm.8-86.2v83.6l41.4-41.4V94.55Z" style="fill:#63c4f0"/><polygon points="306.9 178.65 392.7 178.65 349.8 221.45 264 221.45 306.9 178.65" style="fill:#e91d23"/><path d="M349.8,222.25H264a.75.75,0,0,1-.7-.5.78.78,0,0,1,.2-.8l42.9-42.9a.76.76,0,0,1,.5-.2h85.8a.75.75,0,0,1,.7.5.78.78,0,0,1-.2.8l-42.9,42.9A.76.76,0,0,1,349.8,222.25Zm-83.9-1.5h83.6l41.4-41.4H307.2Z" style="fill:#63c4f0"/><polygon points="392.7 92.85 306.9 92.85 264 135.75 349.8 135.75 392.7 92.85" style="fill:#e91d23"/><path d="M349.8,136.45H264a.75.75,0,0,1-.7-.5.78.78,0,0,1,.2-.8l42.9-42.9a.76.76,0,0,1,.5-.2h85.8a.75.75,0,0,1,.7.5.78.78,0,0,1-.2.8l-42.9,42.9A.76.76,0,0,1,349.8,136.45ZM265.9,135h83.6l41.4-41.4H307.2Z" style="fill:#63c4f0"/><polygon points="306.9 92.85 306.9 178.65 264 221.45 264 135.75 306.9 92.85" style="fill:#e91d23"/><path d="M264,222.25a.37.37,0,0,1-.3-.1.75.75,0,0,1-.5-.7v-85.8a.76.76,0,0,1,.2-.5l42.9-42.9a.78.78,0,0,1,.8-.2.75.75,0,0,1,.5.7v85.8a.76.76,0,0,1-.2.5L264.5,222A.55.55,0,0,1,264,222.25Zm.8-86.2v83.6l41.4-41.4V94.55Z" style="fill:#63c4f0"/><path d="M349.8,222.25H264a.79.79,0,0,1-.8-.8v-85.8a.79.79,0,0,1,.8-.8h85.8a.79.79,0,0,1,.8.8v85.8A.79.79,0,0,1,349.8,222.25Zm-85-1.5h84.3v-84.3H264.8Z" style="fill:#63c4f0"/><rect x="136" y="92.85" width="85.8" height="85.8" style="fill:#fff"/><path d="M221.7,179.35H136a.79.79,0,0,1-.8-.8V92.75a.79.79,0,0,1,.8-.8h85.8a.79.79,0,0,1,.8.8v85.8A1,1,0,0,1,221.7,179.35Zm-85-1.5H221V93.55H136.7Z" style="fill:#63c4f0"/><rect x="178.8" y="49.95" width="85.8" height="85.8" style="fill:#fff"/><path d="M264.6,136.45H178.8a.79.79,0,0,1-.8-.8V49.85a.79.79,0,0,1,.8-.8h85.8a.79.79,0,0,1,.8.8v85.8A.79.79,0,0,1,264.6,136.45Zm-85-1.5h84.3V50.65H179.6V135Z" style="fill:#63c4f0"/><polygon points="264.6 49.95 264.6 135.75 221.7 178.65 221.7 92.85 264.6 49.95" style="fill:#fff"/><path d="M221.7,179.35a.37.37,0,0,1-.3-.1.75.75,0,0,1-.5-.7V92.75a.76.76,0,0,1,.2-.5L264,49.35a.78.78,0,0,1,.8-.2.75.75,0,0,1,.5.7v85.8a.76.76,0,0,1-.2.5l-42.9,42.9A.55.55,0,0,1,221.7,179.35Zm.8-86.2v83.7l41.4-41.4V51.75Z" style="fill:#63c4f0"/><polygon points="178.8 135.75 264.6 135.75 221.7 178.65 136 178.65 178.8 135.75" style="fill:#fff"/><path d="M221.7,179.35H136a.75.75,0,0,1-.7-.5.63.63,0,0,1,.2-.8l42.9-42.9a.76.76,0,0,1,.5-.2h85.8a.75.75,0,0,1,.7.5.78.78,0,0,1-.2.8l-42.9,42.9A1.42,1.42,0,0,1,221.7,179.35Zm-83.9-1.5h83.6l41.4-41.4H179.2Z" style="fill:#63c4f0"/><polygon points="264.6 49.95 178.8 49.95 136 92.85 221.7 92.85 264.6 49.95" style="fill:#fff"/><path d="M221.7,93.55H136a.75.75,0,0,1-.7-.5.63.63,0,0,1,.2-.8l42.9-42.9a.76.76,0,0,1,.5-.2h85.8a.75.75,0,0,1,.7.5.78.78,0,0,1-.2.8l-42.9,42.9A.73.73,0,0,1,221.7,93.55Zm-83.9-1.5h83.6l41.4-41.4H179.2Z" style="fill:#63c4f0"/><polygon points="178.8 49.95 178.8 135.75 136 178.65 136 92.85 178.8 49.95" style="fill:#fff"/><path d="M136,179.35a.37.37,0,0,1-.3-.1.75.75,0,0,1-.5-.7V92.75a.76.76,0,0,1,.2-.5l42.9-42.9a.78.78,0,0,1,.8-.2.75.75,0,0,1,.5.7v85.8a.76.76,0,0,1-.2.5l-42.9,42.9A.91.91,0,0,1,136,179.35Zm.7-86.2v83.7l41.4-41.4V51.75Z" style="fill:#63c4f0"/><path d="M221.7,179.35H136a.79.79,0,0,1-.8-.8V92.75a.79.79,0,0,1,.8-.8h85.8a.79.79,0,0,1,.8.8v85.8A1,1,0,0,1,221.7,179.35Zm-85-1.5H221V93.55H136.7Z" style="fill:#63c4f0"/><rect x="50.2" y="92.85" width="85.8" height="85.8" style="fill:#e91d23"/><path d="M136,179.35H50.2a.79.79,0,0,1-.8-.8V92.75a.79.79,0,0,1,.8-.8H136a.79.79,0,0,1,.8.8v85.8C136.7,179.05,136.4,179.35,136,179.35Zm-85.1-1.5h84.3V93.55H50.9Z" style="fill:#63c4f0"/><rect x="93.1" y="49.95" width="85.8" height="85.8" style="fill:#e91d23"/><path d="M178.8,136.45H93a.79.79,0,0,1-.8-.8V49.85a.79.79,0,0,1,.8-.8h85.8a.79.79,0,0,1,.8.8v85.8A.74.74,0,0,1,178.8,136.45Zm-85-1.5h84.3V50.65H93.8Z" style="fill:#63c4f0"/><polygon points="178.8 49.95 178.8 135.75 136 178.65 136 92.85 178.8 49.95" style="fill:#e91d23"/><path d="M136,179.35a.37.37,0,0,1-.3-.1.75.75,0,0,1-.5-.7V92.75a.76.76,0,0,1,.2-.5l42.9-42.9a.78.78,0,0,1,.8-.2.75.75,0,0,1,.5.7v85.8a.76.76,0,0,1-.2.5l-42.9,42.9A.91.91,0,0,1,136,179.35Zm.7-86.2v83.7l41.4-41.4V51.75Z" style="fill:#63c4f0"/><polygon points="93.1 135.75 178.8 135.75 136 178.65 50.2 178.65 93.1 135.75" style="fill:#e91d23"/><path d="M136,179.35H50.2a.75.75,0,0,1-.7-.5.63.63,0,0,1,.2-.8l42.9-42.9a.76.76,0,0,1,.5-.2h85.8a.75.75,0,0,1,.7.5.63.63,0,0,1-.2.8l-42.9,42.9C136.3,179.25,136.2,179.35,136,179.35Zm-84-1.5h83.7l41.4-41.4H93.5Z" style="fill:#63c4f0"/><polygon points="178.8 49.95 93.1 49.95 50.2 92.85 136 92.85 178.8 49.95" style="fill:#e91d23"/><path d="M136,93.55H50.2a.75.75,0,0,1-.7-.5.63.63,0,0,1,.2-.8l42.9-42.9a.76.76,0,0,1,.5-.2h85.8a.75.75,0,0,1,.7.5.63.63,0,0,1-.2.8l-42.9,42.9A.55.55,0,0,1,136,93.55Zm-84-1.5h83.7l41.4-41.4H93.5Z" style="fill:#63c4f0"/><polygon points="93.1 49.95 93.1 135.75 50.2 178.65 50.2 92.85 93.1 49.95" style="fill:#e91d23"/><path d="M50.2,179.35a.37.37,0,0,1-.3-.1.75.75,0,0,1-.5-.7V92.75a.76.76,0,0,1,.2-.5l42.9-42.9a.78.78,0,0,1,.8-.2.75.75,0,0,1,.5.7v85.8a.76.76,0,0,1-.2.5l-42.9,42.9A.55.55,0,0,1,50.2,179.35Zm.7-86.2v83.7l41.4-41.4V51.75Z" style="fill:#63c4f0"/><path d="M136,179.35H50.2a.79.79,0,0,1-.8-.8V92.75a.79.79,0,0,1,.8-.8H136a.79.79,0,0,1,.8.8v85.8C136.7,179.05,136.4,179.35,136,179.35Zm-85.1-1.5h84.3V93.55H50.9Z" style="fill:#63c4f0"/><rect x="93.1" y="221.45" width="85.8" height="85.8" style="fill:#fff"/><path d="M178.8,308.05H93a.79.79,0,0,1-.8-.8v-85.8a.79.79,0,0,1,.8-.8h85.8a.79.79,0,0,1,.8.8v85.8A.79.79,0,0,1,178.8,308.05Zm-85-1.5h84.3v-84.3H93.8Z" style="fill:#63c4f0"/><rect x="136" y="178.65" width="85.8" height="85.8" style="fill:#fff"/><path d="M221.7,265.15H136a.79.79,0,0,1-.8-.8v-85.8a.79.79,0,0,1,.8-.8h85.8a.79.79,0,0,1,.8.8v85.8A1.06,1.06,0,0,1,221.7,265.15Zm-85-1.5H221v-84.3H136.7Z" style="fill:#63c4f0"/><polygon points="221.7 178.65 221.7 264.35 178.8 307.25 178.8 221.45 221.7 178.65" style="fill:#fff"/><path d="M178.8,308.05a.37.37,0,0,1-.3-.1.75.75,0,0,1-.5-.7v-85.8a.76.76,0,0,1,.2-.5l42.9-42.9a.78.78,0,0,1,.8-.2.75.75,0,0,1,.5.7v85.8a.76.76,0,0,1-.2.5l-42.9,42.9A.55.55,0,0,1,178.8,308.05Zm.8-86.2v83.7l41.4-41.4v-83.7Z" style="fill:#63c4f0"/><polygon points="136 264.35 221.7 264.35 178.8 307.25 93.1 307.25 136 264.35" style="fill:#fff"/><path d="M178.8,308.05H93a.75.75,0,0,1-.7-.5.63.63,0,0,1,.2-.8l42.9-42.9a.76.76,0,0,1,.5-.2h85.8a.75.75,0,0,1,.7.5.63.63,0,0,1-.2.8l-42.9,42.9A.76.76,0,0,1,178.8,308.05Zm-83.9-1.5h83.6l41.4-41.4H136.3Z" style="fill:#63c4f0"/><polygon points="221.7 178.65 136 178.65 93.1 221.45 178.8 221.45 221.7 178.65" style="fill:#fff"/><path d="M178.8,222.25H93a.75.75,0,0,1-.7-.5.63.63,0,0,1,.2-.8l42.9-42.9a.76.76,0,0,1,.5-.2h85.8a.75.75,0,0,1,.7.5.63.63,0,0,1-.2.8l-42.9,42.9A.76.76,0,0,1,178.8,222.25Zm-83.9-1.5h83.6l41.4-41.4H136.3Z" style="fill:#63c4f0"/><polygon points="136 178.65 136 264.35 93.1 307.25 93.1 221.45 136 178.65" style="fill:#fff"/><path d="M93.1,308.05a.37.37,0,0,1-.3-.1.75.75,0,0,1-.5-.7v-85.8a.76.76,0,0,1,.2-.5l42.9-42.9a.78.78,0,0,1,.8-.2.75.75,0,0,1,.5.7v85.8a.76.76,0,0,1-.2.5l-42.9,42.9A.55.55,0,0,1,93.1,308.05Zm.7-86.2v83.7l41.4-41.4v-83.7Z" style="fill:#63c4f0"/><path d="M178.8,308.05H93a.79.79,0,0,1-.8-.8v-85.8a.79.79,0,0,1,.8-.8h85.8a.79.79,0,0,1,.8.8v85.8A.79.79,0,0,1,178.8,308.05Zm-85-1.5h84.3v-84.3H93.8Z" style="fill:#63c4f0"/><rect x="7.3" y="221.45" width="85.8" height="85.8" style="fill:#e91d23"/><path d="M93.1,308.05H7.3a.79.79,0,0,1-.8-.8v-85.8a.79.79,0,0,1,.8-.8H93.1a.79.79,0,0,1,.8.8v85.8C93.8,307.65,93.5,308.05,93.1,308.05ZM8,306.55H92.3v-84.3H8Z" style="fill:#63c4f0"/><rect x="50.2" y="178.65" width="85.8" height="85.8" style="fill:#e91d23"/><path d="M136,265.15H50.2a.79.79,0,0,1-.8-.8v-85.8a.79.79,0,0,1,.8-.8H136a.79.79,0,0,1,.8.8v85.8C136.7,264.75,136.4,265.15,136,265.15Zm-85.1-1.5h84.3v-84.3H50.9Z" style="fill:#63c4f0"/><polygon points="136 178.65 136 264.35 93.1 307.25 93.1 221.45 136 178.65" style="fill:#e91d23"/><path d="M93.1,308.05a.37.37,0,0,1-.3-.1.75.75,0,0,1-.5-.7v-85.8a.76.76,0,0,1,.2-.5l42.9-42.9a.78.78,0,0,1,.8-.2.75.75,0,0,1,.5.7v85.8a.76.76,0,0,1-.2.5l-42.9,42.9A.55.55,0,0,1,93.1,308.05Zm.7-86.2v83.7l41.4-41.4v-83.7Z" style="fill:#63c4f0"/><polygon points="50.2 264.35 136 264.35 93.1 307.25 7.3 307.25 50.2 264.35" style="fill:#e91d23"/><path d="M93.1,308.05H7.3a.75.75,0,0,1-.7-.5.63.63,0,0,1,.2-.8l42.9-42.9a.76.76,0,0,1,.5-.2H136a.75.75,0,0,1,.7.5.63.63,0,0,1-.2.8l-42.9,42.9A.76.76,0,0,1,93.1,308.05Zm-84-1.5H92.7l41.4-41.4H50.5Z" style="fill:#63c4f0"/><polygon points="136 178.65 50.2 178.65 7.3 221.45 93.1 221.45 136 178.65" style="fill:#e91d23"/><path d="M93.1,222.25H7.3a.75.75,0,0,1-.7-.5.63.63,0,0,1,.2-.8l42.9-42.9a.76.76,0,0,1,.5-.2H136a.75.75,0,0,1,.7.5.63.63,0,0,1-.2.8l-42.9,42.9A.76.76,0,0,1,93.1,222.25Zm-84-1.5H92.7l41.4-41.4H50.5Z" style="fill:#63c4f0"/><polygon points="50.2 178.65 50.2 264.35 7.3 307.25 7.3 221.45 50.2 178.65" style="fill:#e91d23"/><path d="M7.3,308.05A.37.37,0,0,1,7,308a.75.75,0,0,1-.5-.7v-85.8a.76.76,0,0,1,.2-.5l42.9-42.9a.78.78,0,0,1,.8-.2.75.75,0,0,1,.5.7v85.8a.76.76,0,0,1-.2.5L7.8,307.75A.55.55,0,0,1,7.3,308.05Zm.7-86.2v83.7l41.4-41.4v-83.7Z" style="fill:#63c4f0"/><path d="M93.1,308.05H7.3a.79.79,0,0,1-.8-.8v-85.8a.79.79,0,0,1,.8-.8H93.1a.79.79,0,0,1,.8.8v85.8C93.8,307.65,93.5,308.05,93.1,308.05ZM8,306.55H92.3v-84.3H8Z" style="fill:#63c4f0"/><rect x="93.1" y="307.25" width="85.8" height="85.8" style="fill:#e91d23"/><path d="M178.8,393.75H93a.79.79,0,0,1-.8-.8v-85.8a.79.79,0,0,1,.8-.8h85.8a.79.79,0,0,1,.8.8V393A.74.74,0,0,1,178.8,393.75Zm-85-1.5h84.3V308H93.8Z" style="fill:#63c4f0"/><rect x="136" y="264.35" width="85.8" height="85.8" style="fill:#e91d23"/><path d="M221.7,350.85H136a.79.79,0,0,1-.8-.8v-85.8a.79.79,0,0,1,.8-.8h85.8a.79.79,0,0,1,.8.8v85.8A1,1,0,0,1,221.7,350.85Zm-85-1.5H221v-84.3H136.7Z" style="fill:#63c4f0"/><polygon points="221.7 264.35 221.7 350.15 178.8 393.05 178.8 307.25 221.7 264.35" style="fill:#e91d23"/><path d="M178.8,393.75a.37.37,0,0,1-.3-.1.75.75,0,0,1-.5-.7v-85.8a.76.76,0,0,1,.2-.5l42.9-42.9a.78.78,0,0,1,.8-.2.75.75,0,0,1,.5.7v85.8a.76.76,0,0,1-.2.5l-42.8,43A.73.73,0,0,1,178.8,393.75Zm.8-86.2v83.7l41.4-41.4v-83.6Z" style="fill:#63c4f0"/><polygon points="136 350.15 221.7 350.15 178.8 393.05 93.1 393.05 136 350.15" style="fill:#e91d23"/><path d="M178.8,393.75H93a.75.75,0,0,1-.7-.5.63.63,0,0,1,.2-.8l42.9-42.9a.76.76,0,0,1,.5-.2h85.8a.75.75,0,0,1,.7.5.63.63,0,0,1-.2.8l-42.8,42.9A.73.73,0,0,1,178.8,393.75Zm-83.9-1.5h83.6l41.4-41.4H136.3Z" style="fill:#63c4f0"/><polygon points="221.7 264.35 136 264.35 93.1 307.25 178.8 307.25 221.7 264.35" style="fill:#e91d23"/><path d="M178.8,308.05H93a.75.75,0,0,1-.7-.5.63.63,0,0,1,.2-.8l42.9-42.9a.76.76,0,0,1,.5-.2h85.8a.75.75,0,0,1,.7.5.63.63,0,0,1-.2.8l-42.9,42.9A.76.76,0,0,1,178.8,308.05Zm-83.9-1.5h83.6l41.4-41.4H136.3Z" style="fill:#63c4f0"/><polygon points="136 264.35 136 350.15 93.1 393.05 93.1 307.25 136 264.35" style="fill:#e91d23"/><path d="M93.1,393.75a.37.37,0,0,1-.3-.1.75.75,0,0,1-.5-.7v-85.8a.76.76,0,0,1,.2-.5l42.9-42.9a.78.78,0,0,1,.8-.2.75.75,0,0,1,.5.7v85.8a.76.76,0,0,1-.2.5l-42.9,43C93.5,393.75,93.3,393.75,93.1,393.75Zm.7-86.2v83.7l41.4-41.4v-83.6Z" style="fill:#63c4f0"/><path d="M178.8,393.75H93a.79.79,0,0,1-.8-.8v-85.8a.79.79,0,0,1,.8-.8h85.8a.79.79,0,0,1,.8.8V393A.74.74,0,0,1,178.8,393.75Zm-85-1.5h84.3V308H93.8Z" style="fill:#63c4f0"/><rect x="178.8" y="49.95" width="85.8" height="85.8" style="fill:#e91d23"/><path d="M264.6,136.45H178.8a.79.79,0,0,1-.8-.8V49.85a.79.79,0,0,1,.8-.8h85.8a.79.79,0,0,1,.8.8v85.8A.79.79,0,0,1,264.6,136.45Zm-85-1.5h84.3V50.65H179.6V135Z" style="fill:#63c4f0"/><rect x="221.7" y="7.05" width="85.8" height="85.8" style="fill:#e91d23"/><path d="M307.5,93.55H221.7a.79.79,0,0,1-.8-.8V7.05a.79.79,0,0,1,.8-.8h85.8a.79.79,0,0,1,.8.8v85.8A.85.85,0,0,1,307.5,93.55Zm-85-1.5h84.3V7.85H222.5Z" style="fill:#63c4f0"/><polygon points="307.5 7.05 307.5 92.85 264.6 135.75 264.6 49.95 307.5 7.05" style="fill:#e91d23"/><path d="M264.6,136.45a.37.37,0,0,1-.3-.1.75.75,0,0,1-.5-.7V49.85a.76.76,0,0,1,.2-.5l43-42.8a.78.78,0,0,1,.8-.2.75.75,0,0,1,.5.7v85.8a.76.76,0,0,1-.2.5l-42.9,42.9A1.42,1.42,0,0,1,264.6,136.45Zm.8-86.2V134l41.4-41.4V8.85Z" style="fill:#63c4f0"/><polygon points="221.7 92.85 307.5 92.85 264.6 135.75 178.8 135.75 221.7 92.85" style="fill:#e91d23"/><path d="M264.6,136.45H178.8a.75.75,0,0,1-.7-.5.63.63,0,0,1,.2-.8l42.9-42.9a.76.76,0,0,1,.5-.2h85.8a.75.75,0,0,1,.7.5.78.78,0,0,1-.2.8l-42.9,42.9A.76.76,0,0,1,264.6,136.45ZM180.7,135h83.6l41.4-41.4H222Z" style="fill:#63c4f0"/><polygon points="307.5 7.05 221.7 7.05 178.8 49.95 264.6 49.95 307.5 7.05" style="fill:#e91d23"/><path d="M264.6,50.65H178.8a.75.75,0,0,1-.7-.5.63.63,0,0,1,.2-.8l42.9-42.8a.76.76,0,0,1,.5-.2h85.8a.75.75,0,0,1,.7.5.78.78,0,0,1-.2.8l-42.9,42.9A.75.75,0,0,1,264.6,50.65Zm-83.9-1.5h83.6l41.4-41.4H222Z" style="fill:#63c4f0"/><polygon points="221.7 7.05 221.7 92.85 178.8 135.75 178.8 49.95 221.7 7.05" style="fill:#e91d23"/><path d="M178.8,136.45a.37.37,0,0,1-.3-.1.75.75,0,0,1-.5-.7V49.85a.76.76,0,0,1,.2-.5l43-42.8a.78.78,0,0,1,.8-.2.75.75,0,0,1,.5.7v85.8a.76.76,0,0,1-.2.5l-42.9,42.9A1.42,1.42,0,0,1,178.8,136.45Zm.8-86.2V134L221,92.55V8.85Z" style="fill:#63c4f0"/><path d="M264.6,136.45H178.8a.79.79,0,0,1-.8-.8V49.85a.79.79,0,0,1,.8-.8h85.8a.79.79,0,0,1,.8.8v85.8A.79.79,0,0,1,264.6,136.45Zm-85-1.5h84.3V50.65H179.6V135Z" style="fill:#63c4f0"/><rect x="136" y="178.65" width="85.8" height="85.8" style="fill:#e91d23"/><path d="M221.7,265.15H136a.79.79,0,0,1-.8-.8v-85.8a.79.79,0,0,1,.8-.8h85.8a.79.79,0,0,1,.8.8v85.8A1.06,1.06,0,0,1,221.7,265.15Zm-85-1.5H221v-84.3H136.7Z" style="fill:#63c4f0"/><rect x="178.8" y="135.75" width="85.8" height="85.8" style="fill:#e91d23"/><path d="M264.6,222.25H178.8a.79.79,0,0,1-.8-.8v-85.8a.79.79,0,0,1,.8-.8h85.8a.79.79,0,0,1,.8.8v85.8A.79.79,0,0,1,264.6,222.25Zm-85-1.5h84.3v-84.3H179.6v84.3Z" style="fill:#63c4f0"/><polygon points="264.6 135.75 264.6 221.45 221.7 264.35 221.7 178.65 264.6 135.75" style="fill:#e91d23"/><path d="M221.7,265.15a.37.37,0,0,1-.3-.1.75.75,0,0,1-.5-.7v-85.8a.76.76,0,0,1,.2-.5l42.9-42.9a.78.78,0,0,1,.8-.2.75.75,0,0,1,.5.7v85.8a.76.76,0,0,1-.2.5l-42.9,42.9A.55.55,0,0,1,221.7,265.15Zm.8-86.2v83.6l41.4-41.4v-83.6Z" style="fill:#63c4f0"/><polygon points="178.8 221.45 264.6 221.45 221.7 264.35 136 264.35 178.8 221.45" style="fill:#e91d23"/><path d="M221.7,265.15H136a.75.75,0,0,1-.7-.5.63.63,0,0,1,.2-.8L178.4,221a.76.76,0,0,1,.5-.2h85.8a.75.75,0,0,1,.7.5.78.78,0,0,1-.2.8L222.3,265A1.42,1.42,0,0,1,221.7,265.15Zm-83.9-1.5h83.6l41.4-41.4H179.2Z" style="fill:#63c4f0"/><polygon points="264.6 135.75 178.8 135.75 136 178.65 221.7 178.65 264.6 135.75" style="fill:#e91d23"/><path d="M221.7,179.35H136a.75.75,0,0,1-.7-.5.63.63,0,0,1,.2-.8l42.9-42.9a.76.76,0,0,1,.5-.2h85.8a.75.75,0,0,1,.7.5.78.78,0,0,1-.2.8l-42.9,42.9A1.42,1.42,0,0,1,221.7,179.35Zm-83.9-1.5h83.6l41.4-41.4H179.2Z" style="fill:#63c4f0"/><polygon points="178.8 135.75 178.8 221.45 136 264.35 136 178.65 178.8 135.75" style="fill:#e91d23"/><path d="M136,265.15a.37.37,0,0,1-.3-.1.75.75,0,0,1-.5-.7v-85.8a.76.76,0,0,1,.2-.5l42.9-42.9a.78.78,0,0,1,.8-.2.75.75,0,0,1,.5.7v85.8a.76.76,0,0,1-.2.5l-42.9,42.9A.91.91,0,0,1,136,265.15Zm.7-86.2v83.6l41.4-41.4v-83.6Z" style="fill:#63c4f0"/><path d="M221.7,265.15H136a.79.79,0,0,1-.8-.8v-85.8a.79.79,0,0,1,.8-.8h85.8a.79.79,0,0,1,.8.8v85.8A1.06,1.06,0,0,1,221.7,265.15Zm-85-1.5H221v-84.3H136.7Z" style="fill:#63c4f0"/><polygon points="221.7 92.85 221.7 135.75 178.8 135.75 178.8 92.85 136 92.85 136 221.45 178.8 221.45 178.8 178.65 221.7 178.65 221.7 221.45 264.6 221.45 264.6 92.85 221.7 92.85" style="fill:#63c4f0"/><path d="M264.6,222.25H221.7a.79.79,0,0,1-.8-.8v-42.1H179.5v42.1a.79.79,0,0,1-.8.8H136a.79.79,0,0,1-.8-.8V92.85a.79.79,0,0,1,.8-.8h42.9a.79.79,0,0,1,.8.8V135H221V92.85a.79.79,0,0,1,.8-.8h42.9a.79.79,0,0,1,.8.8v128.7A1,1,0,0,1,264.6,222.25Zm-42.1-1.5h41.4V93.55H222.5v42.1a.79.79,0,0,1-.8.8H178.8a.79.79,0,0,1-.8-.8V93.55H136.6v127.2H178v-42.1a.79.79,0,0,1,.8-.8h42.9a.79.79,0,0,1,.8.8Z" style="fill:#63c4f0"/></svg>