<svg id="f9cbc748-dd47-436a-acce-085f4312d2d4" data-name="Layer 1" xmlns="http://www.w3.org/2000/svg" viewBox="0 0 400 400"><title>hop4</title><rect x="157.08" y="157.12" width="85.8" height="85.8" style="fill:#88caf1"/><path d="M242.88,243.62h-85.8a.79.79,0,0,1-.8-.8V157a.79.79,0,0,1,.8-.8h85.8a.79.79,0,0,1,.8.8v85.8C243.58,243.32,243.28,243.62,242.88,243.62Zm-85-1.5h84.3v-84.3h-84.3v84.3Z" style="fill:#f3d23f"/><rect x="114.18" y="200.02" width="85.8" height="85.8" style="fill:#88caf1"/><path d="M200,286.52h-85.8a.79.79,0,0,1-.8-.8V200a.79.79,0,0,1,.8-.8H200a.79.79,0,0,1,.8.8v85.8A.77.77,0,0,1,200,286.52ZM115,285h84.3v-84.3H115Z" style="fill:#f3d23f"/><polygon points="114.18 285.82 114.18 200.02 157.08 157.12 157.08 242.92 114.18 285.82" style="fill:#88caf1"/><path d="M114.18,286.52a.37.37,0,0,1-.3-.1.75.75,0,0,1-.5-.7V200a.76.76,0,0,1,.2-.5l42.9-42.9a.78.78,0,0,1,.8-.2.75.75,0,0,1,.5.7v85.8a.76.76,0,0,1-.2.5l-42.9,42.9A.76.76,0,0,1,114.18,286.52Zm.8-86.2V284l41.4-41.4V159Z" style="fill:#f3d23f"/><polygon points="199.98 200.02 114.18 200.02 157.08 157.12 242.88 157.12 199.98 200.02" style="fill:#88caf1"/><path d="M200,200.82h-85.8a.75.75,0,0,1-.7-.5.63.63,0,0,1,.2-.8l42.9-42.9a.76.76,0,0,1,.5-.2h85.8a.75.75,0,0,1,.7.5.78.78,0,0,1-.2.8l-42.9,42.9A.76.76,0,0,1,200,200.82Zm-84-1.5h83.6l41.4-41.4h-83.6Z" style="fill:#f3d23f"/><polygon points="114.18 285.82 199.98 285.82 242.88 242.92 157.08 242.92 114.18 285.82" style="fill:#88caf1"/><path d="M200,286.52h-85.8a.75.75,0,0,1-.7-.5.63.63,0,0,1,.2-.8l42.9-42.9a.76.76,0,0,1,.5-.2h85.8a.75.75,0,0,1,.7.5.78.78,0,0,1-.2.8l-42.9,42.9A.76.76,0,0,1,200,286.52ZM116,285h83.6l41.4-41.4h-83.6Z" style="fill:#f3d23f"/><polygon points="199.98 285.82 199.98 200.02 242.88 157.12 242.88 242.92 199.98 285.82" style="fill:#88caf1"/><path d="M200,286.52a.37.37,0,0,1-.3-.1.75.75,0,0,1-.5-.7V200a.76.76,0,0,1,.2-.5l42.9-42.9a.78.78,0,0,1,.8-.2.75.75,0,0,1,.5.7v85.8a.76.76,0,0,1-.2.5l-42.9,42.9A.76.76,0,0,1,200,286.52Zm.8-86.2V284l41.4-41.4V159Z" style="fill:#f3d23f"/><rect x="157.08" y="157.12" width="85.8" height="85.8" style="fill:#88caf1"/><path d="M242.88,243.62h-85.8a.79.79,0,0,1-.8-.8V157a.79.79,0,0,1,.8-.8h85.8a.79.79,0,0,1,.8.8v85.8C243.58,243.32,243.28,243.62,242.88,243.62Zm-85-1.5h84.3v-84.3h-84.3v84.3Z" style="fill:#f3d23f"/><rect x="199.98" y="28.52" width="85.8" height="85.8" style="fill:#88caf1"/><path d="M285.78,115H200a.79.79,0,0,1-.8-.8V28.52a.79.79,0,0,1,.8-.8h85.8a.79.79,0,0,1,.8.8v85.8A1,1,0,0,1,285.78,115Zm-85-1.5H285V29.22h-84.3v84.3Z" style="fill:#f3d23f"/><rect x="157.08" y="71.32" width="85.8" height="85.8" style="fill:#88caf1"/><path d="M242.88,157.92h-85.8a.79.79,0,0,1-.8-.8V71.32a.79.79,0,0,1,.8-.8h85.8a.79.79,0,0,1,.8.8v85.8C243.58,157.52,243.28,157.92,242.88,157.92Zm-85-1.5h84.3V72.12h-84.3v84.3Z" style="fill:#f3d23f"/><polygon points="157.08 157.12 157.08 71.32 199.98 28.52 199.98 114.22 157.08 157.12" style="fill:#88caf1"/><path d="M157.08,157.92a.37.37,0,0,1-.3-.1.75.75,0,0,1-.5-.7V71.32a.76.76,0,0,1,.2-.5l42.9-42.9a.78.78,0,0,1,.8-.2.75.75,0,0,1,.5.7v85.8a.76.76,0,0,1-.2.5l-42.9,42.9A.55.55,0,0,1,157.08,157.92Zm.8-86.2v83.6l41.4-41.4V30.32Z" style="fill:#f3d23f"/><polygon points="242.88 71.32 157.08 71.32 199.98 28.52 285.78 28.52 242.88 71.32" style="fill:#88caf1"/><path d="M242.88,72.12h-85.8a.75.75,0,0,1-.7-.5.63.63,0,0,1,.2-.8l42.9-42.9a.76.76,0,0,1,.5-.2h85.8a.75.75,0,0,1,.7.5.78.78,0,0,1-.2.8l-42.9,42.9A.76.76,0,0,1,242.88,72.12Zm-84-1.5h83.6L284,29.22h-83.7Z" style="fill:#f3d23f"/><polygon points="157.08 157.12 242.88 157.12 285.78 114.22 199.98 114.22 157.08 157.12" style="fill:#88caf1"/><path d="M242.88,157.92h-85.8a.75.75,0,0,1-.7-.5.63.63,0,0,1,.2-.8l42.9-42.9a.76.76,0,0,1,.5-.2h85.8a.75.75,0,0,1,.7.5.78.78,0,0,1-.2.8l-42.9,42.9A.76.76,0,0,1,242.88,157.92Zm-84-1.5h83.6L284,115h-83.7Z" style="fill:#f3d23f"/><polygon points="242.88 157.12 242.88 71.32 285.78 28.52 285.78 114.22 242.88 157.12" style="fill:#88caf1"/><path d="M242.88,157.92a.37.37,0,0,1-.3-.1.75.75,0,0,1-.5-.7V71.32a.76.76,0,0,1,.2-.5l42.9-42.9a.78.78,0,0,1,.8-.2.75.75,0,0,1,.5.7v85.8a.76.76,0,0,1-.2.5l-42.9,42.9A.55.55,0,0,1,242.88,157.92Zm.7-86.2v83.6l41.4-41.4V30.32Z" style="fill:#f3d23f"/><path d="M285.78,115H200a.79.79,0,0,1-.8-.8V28.52a.79.79,0,0,1,.8-.8h85.8a.79.79,0,0,1,.8.8v85.8A1,1,0,0,1,285.78,115Zm-85-1.5H285V29.22h-84.3v84.3Z" style="fill:#f3d23f"/><rect x="242.88" y="242.92" width="85.8" height="85.8" style="fill:#88caf1"/><path d="M328.68,329.42h-85.8a.79.79,0,0,1-.8-.8v-85.8a.79.79,0,0,1,.8-.8h85.8a.79.79,0,0,1,.8.8v85.8C329.38,329.12,329.08,329.42,328.68,329.42Zm-85.1-1.5h84.3v-84.3h-84.3v84.3Z" style="fill:#f3d23f"/><rect x="199.98" y="285.82" width="85.8" height="85.8" style="fill:#88caf1"/><path d="M285.78,372.32H200a.79.79,0,0,1-.8-.8v-85.8a.79.79,0,0,1,.8-.8h85.8a.79.79,0,0,1,.8.8v85.8C286.48,372,286.18,372.32,285.78,372.32Zm-85-1.5H285v-84.3h-84.3v84.3Z" style="fill:#f3d23f"/><polygon points="199.98 371.52 199.98 285.82 242.88 242.92 242.88 328.72 199.98 371.52" style="fill:#88caf1"/><path d="M200,372.32a.37.37,0,0,1-.3-.1.75.75,0,0,1-.5-.7v-85.8a.76.76,0,0,1,.2-.5l42.9-42.9a.78.78,0,0,1,.8-.2.75.75,0,0,1,.5.7v85.8a.76.76,0,0,1-.2.5L200.48,372A.55.55,0,0,1,200,372.32Zm.8-86.2v83.6l41.4-41.4v-83.7Z" style="fill:#f3d23f"/><polygon points="285.78 285.82 199.98 285.82 242.88 242.92 328.68 242.92 285.78 285.82" style="fill:#88caf1"/><path d="M285.78,286.52H200a.75.75,0,0,1-.7-.5.63.63,0,0,1,.2-.8l42.9-42.9a.76.76,0,0,1,.5-.2h85.8a.75.75,0,0,1,.7.5.78.78,0,0,1-.2.8l-42.9,42.9A.76.76,0,0,1,285.78,286.52Zm-84-1.5h83.7l41.4-41.4h-83.7Z" style="fill:#f3d23f"/><polygon points="199.98 371.52 285.78 371.52 328.68 328.72 242.88 328.72 199.98 371.52" style="fill:#88caf1"/><path d="M285.78,372.32H200a.75.75,0,0,1-.7-.5.63.63,0,0,1,.2-.8l42.9-42.9a.76.76,0,0,1,.5-.2h85.8a.75.75,0,0,1,.7.5.78.78,0,0,1-.2.8l-42.9,42.9A.76.76,0,0,1,285.78,372.32Zm-84-1.5h83.7l41.4-41.4h-83.7Z" style="fill:#f3d23f"/><polygon points="285.78 371.52 285.78 285.82 328.68 242.92 328.68 328.72 285.78 371.52" style="fill:#88caf1"/><path d="M285.78,372.32a.37.37,0,0,1-.3-.1.75.75,0,0,1-.5-.7v-85.8a.76.76,0,0,1,.2-.5l42.9-42.9a.78.78,0,0,1,.8-.2.75.75,0,0,1,.5.7v85.8a.76.76,0,0,1-.2.5L286.28,372A.55.55,0,0,1,285.78,372.32Zm.7-86.2v83.6l41.4-41.4v-83.7Z" style="fill:#f3d23f"/><path d="M328.68,329.42h-85.8a.79.79,0,0,1-.8-.8v-85.8a.79.79,0,0,1,.8-.8h85.8a.79.79,0,0,1,.8.8v85.8C329.38,329.12,329.08,329.42,328.68,329.42Zm-85.1-1.5h84.3v-84.3h-84.3v84.3Z" style="fill:#f3d23f"/><rect x="285.78" y="114.22" width="85.8" height="85.8" style="fill:#88caf1"/><path d="M371.48,200.82h-85.8a.79.79,0,0,1-.8-.8v-85.8a.79.79,0,0,1,.8-.8h85.8a.79.79,0,0,1,.8.8V200A.79.79,0,0,1,371.48,200.82Zm-85-1.5h84.3V115h-84.3Z" style="fill:#f3d23f"/><rect x="242.88" y="157.12" width="85.8" height="85.8" style="fill:#88caf1"/><path d="M328.68,243.62h-85.8a.79.79,0,0,1-.8-.8V157a.79.79,0,0,1,.8-.8h85.8a.79.79,0,0,1,.8.8v85.8C329.38,243.32,329.08,243.62,328.68,243.62Zm-85.1-1.5h84.3v-84.3h-84.3v84.3Z" style="fill:#f3d23f"/><polygon points="242.88 242.92 242.88 157.12 285.78 114.22 285.78 200.02 242.88 242.92" style="fill:#88caf1"/><path d="M242.88,243.62a.37.37,0,0,1-.3-.1.75.75,0,0,1-.5-.7V157a.76.76,0,0,1,.2-.5l42.9-42.9a.78.78,0,0,1,.8-.2.75.75,0,0,1,.5.7V200a.76.76,0,0,1-.2.5l-42.9,42.9C243.28,243.62,243.08,243.62,242.88,243.62Zm.7-86.2V241l41.4-41.4V116Z" style="fill:#f3d23f"/><polygon points="328.68 157.12 242.88 157.12 285.78 114.22 371.48 114.22 328.68 157.12" style="fill:#88caf1"/><path d="M328.68,157.92h-85.8a.75.75,0,0,1-.7-.5.78.78,0,0,1,.2-.8l42.9-42.9a.76.76,0,0,1,.5-.2h85.8a.75.75,0,0,1,.7.5.78.78,0,0,1-.2.8l-42.9,42.9C329,157.82,328.88,157.92,328.68,157.92Zm-84-1.5h83.7l41.4-41.4h-83.6Z" style="fill:#f3d23f"/><polygon points="242.88 242.92 328.68 242.92 371.48 200.02 285.78 200.02 242.88 242.92" style="fill:#88caf1"/><path d="M328.68,243.62h-85.8a.75.75,0,0,1-.7-.5.78.78,0,0,1,.2-.8l42.9-42.9a.76.76,0,0,1,.5-.2h85.8a.75.75,0,0,1,.7.5.78.78,0,0,1-.2.8l-42.9,42.9A.55.55,0,0,1,328.68,243.62Zm-84-1.5h83.7l41.4-41.4h-83.6Z" style="fill:#f3d23f"/><polygon points="328.68 242.92 328.68 157.12 371.48 114.22 371.48 200.02 328.68 242.92" style="fill:#88caf1"/><path d="M328.68,243.62a.37.37,0,0,1-.3-.1.75.75,0,0,1-.5-.7V157a.76.76,0,0,1,.2-.5l42.9-42.9a.78.78,0,0,1,.8-.2.75.75,0,0,1,.5.7V200a.76.76,0,0,1-.2.5l-42.9,42.9A.55.55,0,0,1,328.68,243.62Zm.7-86.2V241l41.4-41.4V116Z" style="fill:#f3d23f"/><path d="M371.48,200.82h-85.8a.79.79,0,0,1-.8-.8v-85.8a.79.79,0,0,1,.8-.8h85.8a.79.79,0,0,1,.8.8V200A.79.79,0,0,1,371.48,200.82Zm-85-1.5h84.3V115h-84.3Z" style="fill:#f3d23f"/><rect x="71.28" y="71.32" width="85.8" height="85.8" style="fill:#88caf1"/><path d="M157.08,157.92H71.28a.79.79,0,0,1-.8-.8V71.32a.79.79,0,0,1,.8-.8h85.8a.79.79,0,0,1,.8.8v85.8A.86.86,0,0,1,157.08,157.92Zm-85-1.5h84.3V72.12H72.08Z" style="fill:#f3d23f"/><rect x="28.48" y="114.22" width="85.8" height="85.8" style="fill:#88caf1"/><path d="M114.18,200.82H28.48a.79.79,0,0,1-.8-.8v-85.8a.79.79,0,0,1,.8-.8h85.8a.79.79,0,0,1,.8.8V200A1.06,1.06,0,0,1,114.18,200.82Zm-85-1.5h84.3V115H29.18Z" style="fill:#f3d23f"/><polygon points="28.48 200.02 28.48 114.22 71.28 71.32 71.28 157.12 28.48 200.02" style="fill:#88caf1"/><path d="M28.48,200.82a.37.37,0,0,1-.3-.1.75.75,0,0,1-.5-.7v-85.8a.76.76,0,0,1,.2-.5l42.9-42.9a.78.78,0,0,1,.8-.2.75.75,0,0,1,.5.7v85.8a.76.76,0,0,1-.2.5L29,200.52C28.78,200.72,28.68,200.82,28.48,200.82Zm.7-86.3v83.6l41.4-41.4V73.12Z" style="fill:#f3d23f"/><polygon points="114.18 114.22 28.48 114.22 71.28 71.32 157.08 71.32 114.18 114.22" style="fill:#88caf1"/><path d="M114.18,115H28.48a.75.75,0,0,1-.7-.5.63.63,0,0,1,.2-.8l42.9-42.9a.76.76,0,0,1,.5-.2h85.8a.75.75,0,0,1,.7.5.63.63,0,0,1-.2.8l-42.9,42.9A1.42,1.42,0,0,1,114.18,115Zm-83.9-1.5H114l41.4-41.4H71.78Z" style="fill:#f3d23f"/><polygon points="28.48 200.02 114.18 200.02 157.08 157.12 71.28 157.12 28.48 200.02" style="fill:#88caf1"/><path d="M114.18,200.82H28.48a.75.75,0,0,1-.7-.5.63.63,0,0,1,.2-.8l42.9-42.9a.76.76,0,0,1,.5-.2h85.8a.75.75,0,0,1,.7.5.63.63,0,0,1-.2.8l-42.9,42.9A1.42,1.42,0,0,1,114.18,200.82Zm-83.9-1.5H114l41.4-41.4H71.78Z" style="fill:#f3d23f"/><polygon points="114.18 200.02 114.18 114.22 157.08 71.32 157.08 157.12 114.18 200.02" style="fill:#88caf1"/><path d="M114.18,200.82a.37.37,0,0,1-.3-.1.75.75,0,0,1-.5-.7v-85.8a.76.76,0,0,1,.2-.5l42.9-42.9a.78.78,0,0,1,.8-.2.75.75,0,0,1,.5.7v85.8a.76.76,0,0,1-.2.5l-42.9,42.9A.55.55,0,0,1,114.18,200.82Zm.8-86.3v83.6l41.4-41.4V73.12Z" style="fill:#f3d23f"/><path d="M157.08,157.92H71.28a.79.79,0,0,1-.8-.8V71.32a.79.79,0,0,1,.8-.8h85.8a.79.79,0,0,1,.8.8v85.8A.86.86,0,0,1,157.08,157.92Zm-85-1.5h84.3V72.12H72.08Z" style="fill:#f3d23f"/><polygon points="242.88 114.22 242.88 157.12 199.98 157.12 199.98 114.22 157.08 114.22 157.08 242.92 199.98 242.92 199.98 200.02 242.88 200.02 242.88 242.92 285.78 242.92 285.78 114.22 242.88 114.22" style="fill:#f3d23f"/><path d="M285.78,243.62h-42.9a.79.79,0,0,1-.8-.8v-42.1h-41.4v42.1a.79.79,0,0,1-.8.8H157a.79.79,0,0,1-.8-.8V114.22a.79.79,0,0,1,.8-.8h43a.79.79,0,0,1,.8.8v42.1h41.4v-42.1a.79.79,0,0,1,.8-.8h42.9a.79.79,0,0,1,.8.8v128.7A1.07,1.07,0,0,1,285.78,243.62Zm-42.2-1.5H285V115h-41.4v42.1a.79.79,0,0,1-.8.8H200a.79.79,0,0,1-.8-.8V115h-41.4v127.2h41.4V200a.79.79,0,0,1,.8-.8h42.9a.79.79,0,0,1,.8.8v42.1Z" style="fill:#f3d23f"/></svg>