<svg xmlns="http://www.w3.org/2000/svg" viewBox="0 0 228 104" width="228" height="104">
	<style>
		tspan { white-space:pre }
		.shp0 { fill: #ffffff } 
		.shp1 { fill: #000000 } 
		.shp2 { fill: #1d1d1c } 
	</style>
	<g id="Layer">
		<g id="Layer">
			<g id="Layer">
				<g id="Layer">
					<path id="Layer" class="shp0" d="M158.3 7.4L219.8 7.4L219.8 68.9L158.3 68.9L158.3 7.4Z" />
				</g>
				<g id="Layer">
					<path id="Layer" fill-rule="evenodd" class="shp1" d="M219.8 69.5L158.3 69.5C158 69.5 157.7 69.2 157.7 68.9L157.7 7.4C157.7 7.1 158 6.8 158.3 6.8L219.8 6.8C220.1 6.8 220.4 7.1 220.4 7.4L220.4 68.9C220.4 69.2 220.1 69.5 219.8 69.5ZM158.9 68.3L219.2 68.3L219.2 8L158.9 8L158.9 68.3Z" />
				</g>
			</g>
			<g id="Layer">
				<g id="Layer">
					<path id="Layer" class="shp0" d="M127.6 38.1L189.1 38.1L189.1 99.6L127.6 99.6L127.6 38.1Z" />
				</g>
				<g id="Layer">
					<path id="Layer" fill-rule="evenodd" class="shp1" d="M189.1 100.2L127.6 100.2C127.3 100.2 127 99.9 127 99.6L127 38.1C127 37.8 127.3 37.5 127.6 37.5L189.1 37.5C189.4 37.5 189.7 37.8 189.7 38.1L189.7 99.6C189.6 100 189.4 100.2 189.1 100.2ZM128.1 99L188.4 99L188.4 38.7L128.1 38.7L128.1 99Z" />
				</g>
			</g>
			<g id="Layer">
				<g id="Layer">
					<path id="Layer" class="shp0" d="M127.6 99.6L127.6 38.1L158.3 7.4L158.3 68.9L127.6 99.6Z" />
				</g>
				<g id="Layer">
					<path id="Layer" fill-rule="evenodd" class="shp1" d="M127.6 100.2C127.5 100.2 127.4 100.2 127.4 100.2C127.2 100.1 127 99.9 127 99.7L127 38.2C127 38 127.1 37.9 127.2 37.8L157.9 7C158.1 6.8 158.3 6.8 158.5 6.9C158.7 7 158.9 7.2 158.9 7.4L158.9 68.9C158.9 69.1 158.8 69.2 158.7 69.3L128 100C127.9 100.2 127.7 100.2 127.6 100.2ZM128.1 38.4L128.1 98.2L157.7 68.6L157.7 8.8L128.1 38.4Z" />
				</g>
			</g>
			<g id="Layer">
				<g id="Layer">
					<path id="Layer" class="shp0" d="M189.1 38.1L127.6 38.1L158.3 7.4L219.8 7.4L189.1 38.1Z" />
				</g>
				<g id="Layer">
					<path id="Layer" fill-rule="evenodd" class="shp1" d="M189.1 38.7L127.6 38.7C127.4 38.7 127.1 38.6 127.1 38.3C127 38.1 127.1 37.8 127.2 37.7L157.9 7C158 6.9 158.2 6.8 158.3 6.8L219.8 6.8C220 6.8 220.3 6.9 220.3 7.2C220.4 7.4 220.3 7.7 220.2 7.8L189.4 38.6C189.4 38.7 189.2 38.7 189.1 38.7ZM129 37.5L188.8 37.5L218.4 8L158.6 8L129 37.5Z" />
				</g>
			</g>
			<g id="Layer">
				<g id="Layer">
					<path id="Layer" class="shp0" d="M127.6 99.6L189.1 99.6L219.8 68.9L158.3 68.9L127.6 99.6Z" />
				</g>
				<g id="Layer">
					<path id="Layer" fill-rule="evenodd" class="shp1" d="M189.1 100.2L127.6 100.2C127.4 100.2 127.1 100.1 127.1 99.8C127 99.6 127.1 99.3 127.2 99.2L158 68.4C158.1 68.3 158.3 68.2 158.4 68.2L219.9 68.2C220.1 68.2 220.4 68.3 220.4 68.6C220.4 68.9 220.4 69.1 220.3 69.2L189.5 100C189.4 100.2 189.2 100.2 189.1 100.2ZM129 99L188.8 99L218.4 69.4L158.6 69.4L129 99Z" />
				</g>
			</g>
			<g id="Layer">
				<g id="Layer">
					<path id="Layer" class="shp0" d="M189.1 99.6L189.1 38.1L219.8 7.4L219.8 68.9L189.1 99.6Z" />
				</g>
				<g id="Layer">
					<path id="Layer" fill-rule="evenodd" class="shp1" d="M189.1 100.2C189 100.2 188.9 100.2 188.9 100.2C188.7 100.1 188.5 99.9 188.5 99.7L188.5 38.2C188.5 38 188.6 37.9 188.7 37.8L219.4 7C219.6 6.8 219.8 6.8 220 6.9C220.2 7 220.4 7.2 220.4 7.4L220.4 68.9C220.4 69.1 220.3 69.2 220.2 69.3L189.5 100C189.4 100.2 189.2 100.2 189.1 100.2ZM189.6 38.4L189.6 98.2L219.2 68.6L219.2 8.8L189.6 38.4Z" />
				</g>
			</g>
		</g>
		<g id="Layer">
			<g id="Layer">
				<path id="Layer" class="shp0" d="M158.3 7.4L219.8 7.4L219.8 68.9L158.3 68.9L158.3 7.4Z" />
			</g>
			<g id="Layer">
				<path id="Layer" fill-rule="evenodd" class="shp1" d="M219.8 69.5L158.3 69.5C158 69.5 157.7 69.2 157.7 68.9L157.7 7.4C157.7 7.1 158 6.8 158.3 6.8L219.8 6.8C220.1 6.8 220.4 7.1 220.4 7.4L220.4 68.9C220.4 69.2 220.1 69.5 219.8 69.5ZM158.9 68.3L219.2 68.3L219.2 8L158.9 8L158.9 68.3Z" />
			</g>
		</g>
	</g>
	<g id="_x30__1_">
		<g id="Layer">
			<g id="Layer">
				<g id="Layer">
					<g id="Layer">
						<path id="Layer" class="shp0" d="M100.2 7.4L161.7 7.4L161.7 68.9L100.2 68.9L100.2 7.4Z" />
					</g>
					<g id="Layer">
						<path id="Layer" fill-rule="evenodd" class="shp2" d="M161.7 69.5L100.2 69.5C99.9 69.5 99.6 69.2 99.6 68.9L99.6 7.4C99.6 7.1 99.9 6.8 100.2 6.8L161.7 6.8C162 6.8 162.3 7.1 162.3 7.4L162.3 68.9C162.3 69.2 162.1 69.5 161.7 69.5ZM100.8 68.3L161.1 68.3L161.1 8L100.8 8L100.8 68.3Z" />
					</g>
				</g>
				<g id="Layer">
					<g id="Layer">
						<path id="Layer" class="shp0" d="M69.5 38.1L131 38.1L131 99.6L69.5 99.6L69.5 38.1Z" />
					</g>
					<g id="Layer">
						<path id="Layer" fill-rule="evenodd" class="shp2" d="M131 100.2L69.5 100.2C69.2 100.2 68.9 99.9 68.9 99.6L68.9 38.1C68.9 37.8 69.2 37.5 69.5 37.5L131 37.5C131.3 37.5 131.6 37.8 131.6 38.1L131.6 99.6C131.6 100 131.3 100.2 131 100.2ZM130.4 99L130.4 38.7L70.1 38.7L70.1 99L130.4 99Z" />
					</g>
				</g>
				<g id="Layer">
					<g id="Layer">
						<path id="Layer" class="shp0" d="M69.5 99.6L69.5 38.1L100.2 7.4L100.2 68.9L69.5 99.6Z" />
					</g>
					<g id="Layer">
						<path id="Layer" fill-rule="evenodd" class="shp2" d="M69.5 100.2C69.4 100.2 69.3 100.2 69.3 100.2C69.1 100.1 68.9 99.9 68.9 99.7L68.9 38.2C68.9 38 69 37.9 69.1 37.8L99.8 7C100 6.8 100.2 6.8 100.4 6.9C100.6 7 100.8 7.2 100.8 7.4L100.8 68.9C100.8 69.1 100.7 69.2 100.6 69.3L69.9 100C69.8 100.2 69.6 100.2 69.5 100.2ZM70.1 38.4L70.1 98.2L99.7 68.6L99.7 8.8L70.1 38.4Z" />
					</g>
				</g>
				<g id="Layer">
					<g id="Layer">
						<path id="Layer" class="shp0" d="M131 38.1L69.5 38.1L100.2 7.4L161.7 7.4L131 38.1Z" />
					</g>
					<g id="Layer">
						<path id="Layer" fill-rule="evenodd" class="shp2" d="M131 38.7L69.5 38.7C69.3 38.7 69 38.6 69 38.3C68.9 38.1 69 37.8 69.1 37.7L99.8 7C99.9 6.9 100.1 6.8 100.2 6.8L161.7 6.8C161.9 6.8 162.2 6.9 162.2 7.2C162.3 7.4 162.2 7.7 162.1 7.8L131.3 38.6C131.3 38.7 131.1 38.7 131 38.7ZM70.9 37.5L130.7 37.5L160.3 8L100.5 8L70.9 37.5Z" />
					</g>
				</g>
				<g id="Layer">
					<g id="Layer">
						<path id="Layer" class="shp0" d="M69.5 99.6L131 99.6L161.7 68.9L100.2 68.9L69.5 99.6Z" />
					</g>
					<g id="Layer">
						<path id="Layer" fill-rule="evenodd" class="shp2" d="M131 100.2L69.5 100.2C69.3 100.2 69 100.1 69 99.8C68.9 99.6 69 99.3 69.1 99.2L99.9 68.4C100 68.3 100.2 68.2 100.3 68.2L161.8 68.2C162 68.2 162.3 68.3 162.3 68.6C162.3 68.9 162.3 69.1 162.2 69.2L131.4 100C131.3 100.2 131.1 100.2 131 100.2ZM70.9 99L130.7 99L160.3 69.4L100.5 69.4L70.9 99Z" />
					</g>
				</g>
				<g id="Layer">
					<g id="Layer">
						<path id="Layer" class="shp0" d="M131 99.6L131 38.1L161.7 7.4L161.7 68.9L131 99.6Z" />
					</g>
					<g id="Layer">
						<path id="Layer" fill-rule="evenodd" class="shp2" d="M131 100.2C130.9 100.2 130.8 100.2 130.8 100.2C130.6 100.1 130.4 99.9 130.4 99.7L130.4 38.2C130.4 38 130.5 37.9 130.6 37.8L161.3 7C161.5 6.8 161.7 6.8 161.9 6.9C162.1 7 162.3 7.2 162.3 7.4L162.3 68.9C162.3 69.1 162.2 69.2 162.1 69.3L131.4 100C131.3 100.2 131.1 100.2 131 100.2ZM131.6 38.4L131.6 98.2L161.2 68.6L161.2 8.8L131.6 38.4Z" />
					</g>
				</g>
			</g>
			<g id="Layer">
				<g id="Layer">
					<path id="Layer" class="shp0" d="M100.2 7.4L161.7 7.4L161.7 68.9L100.2 68.9L100.2 7.4Z" />
				</g>
				<g id="Layer">
					<path id="Layer" fill-rule="evenodd" class="shp2" d="M161.7 69.5L100.2 69.5C99.9 69.5 99.6 69.2 99.6 68.9L99.6 7.4C99.6 7.1 99.9 6.8 100.2 6.8L161.7 6.8C162 6.8 162.3 7.1 162.3 7.4L162.3 68.9C162.3 69.2 162.1 69.5 161.7 69.5ZM100.8 68.3L161.1 68.3L161.1 8L100.8 8L100.8 68.3Z" />
				</g>
			</g>
		</g>
		<path id="Layer" fill-rule="evenodd" class="shp2" d="M132.2 54.2C123.6 54.2 119.8 48.6 119.8 36.8C119.8 25 123.6 19.4 132.2 19.4C140.8 19.4 144.6 25 144.6 36.8C144.7 48.7 140.8 54.2 132.2 54.2ZM132.2 45.5C134.4 45.5 135 43.3 135 36.8C135 30.3 134.3 28.1 132.2 28.1C130.1 28.1 129.4 30.3 129.4 36.8C129.4 43.3 130.1 45.5 132.2 45.5Z" />
	</g>
	<g id="Layer">
		<g id="Layer">
			<g id="Layer">
				<g id="Layer">
					<path id="Layer" class="shp0" d="M38.7 7.4L100.2 7.4L100.2 68.9L38.7 68.9L38.7 7.4Z" />
				</g>
				<g id="Layer">
					<path id="Layer" fill-rule="evenodd" class="shp1" d="M100.2 69.5L38.7 69.5C38.4 69.5 38.1 69.2 38.1 68.9L38.1 7.4C38.1 7.1 38.4 6.8 38.7 6.8L100.2 6.8C100.5 6.8 100.8 7.1 100.8 7.4L100.8 68.9C100.8 69.2 100.6 69.5 100.2 69.5ZM39.3 68.3L99.6 68.3L99.6 8L39.3 8L39.3 68.3Z" />
				</g>
			</g>
			<g id="Layer">
				<g id="Layer">
					<path id="Layer" class="shp0" d="M8 38.1L69.5 38.1L69.5 99.6L8 99.6L8 38.1Z" />
				</g>
				<g id="Layer">
					<path id="Layer" fill-rule="evenodd" class="shp1" d="M69.5 100.2L8 100.2C7.7 100.2 7.4 99.9 7.4 99.6L7.4 38.1C7.4 37.8 7.7 37.5 8 37.5L69.5 37.5C69.8 37.5 70.1 37.8 70.1 38.1L70.1 99.6C70.1 100 69.8 100.2 69.5 100.2ZM68.9 99L68.9 38.7L8.6 38.7L8.6 99L68.9 99Z" />
				</g>
			</g>
			<g id="Layer">
				<g id="Layer">
					<path id="Layer" class="shp0" d="M8 99.6L8 38.1L38.7 7.4L38.7 68.9L8 99.6Z" />
				</g>
				<g id="Layer">
					<path id="Layer" fill-rule="evenodd" class="shp1" d="M8 100.2C7.9 100.2 7.8 100.2 7.8 100.2C7.6 100.1 7.4 99.9 7.4 99.7L7.4 38.2C7.4 38 7.5 37.9 7.6 37.8L38.3 7C38.5 6.8 38.7 6.8 38.9 6.9C39.1 7 39.3 7.2 39.3 7.4L39.3 68.9C39.3 69.1 39.2 69.2 39.1 69.3L8.4 100C8.3 100.2 8.1 100.2 8 100.2ZM8.6 38.4L8.6 98.2L38.2 68.6L38.2 8.8L8.6 38.4Z" />
				</g>
			</g>
			<g id="Layer">
				<g id="Layer">
					<path id="Layer" class="shp0" d="M69.5 38.1L8 38.1L38.7 7.4L100.2 7.4L69.5 38.1Z" />
				</g>
				<g id="Layer">
					<path id="Layer" fill-rule="evenodd" class="shp1" d="M69.5 38.7L8 38.7C7.8 38.7 7.5 38.6 7.5 38.3C7.4 38.1 7.5 37.8 7.6 37.7L38.3 7C38.4 6.9 38.6 6.8 38.7 6.8L100.2 6.8C100.4 6.8 100.7 6.9 100.7 7.2C100.8 7.4 100.7 7.7 100.6 7.8L69.8 38.6C69.8 38.7 69.6 38.7 69.5 38.7ZM9.4 37.5L69.2 37.5L98.8 8L39 8L9.4 37.5Z" />
				</g>
			</g>
			<g id="Layer">
				<g id="Layer">
					<path id="Layer" class="shp0" d="M8 99.6L69.5 99.6L100.2 68.9L38.7 68.9L8 99.6Z" />
				</g>
				<g id="Layer">
					<path id="Layer" fill-rule="evenodd" class="shp1" d="M69.5 100.2L8 100.2C7.8 100.2 7.5 100.1 7.5 99.8C7.4 99.6 7.5 99.3 7.6 99.2L38.4 68.4C38.5 68.3 38.7 68.2 38.8 68.2L100.3 68.2C100.5 68.2 100.8 68.3 100.8 68.6C100.9 68.8 100.8 69.1 100.7 69.2L69.9 100C69.8 100.2 69.6 100.2 69.5 100.2ZM9.4 99L69.2 99L98.8 69.4L39 69.4L9.4 99Z" />
				</g>
			</g>
			<g id="Layer">
				<g id="Layer">
					<path id="Layer" class="shp0" d="M69.5 99.6L69.5 38.1L100.2 7.4L100.2 68.9L69.5 99.6Z" />
				</g>
				<g id="Layer">
					<path id="Layer" fill-rule="evenodd" class="shp1" d="M69.5 100.2C69.4 100.2 69.3 100.2 69.3 100.2C69.1 100.1 68.9 99.9 68.9 99.7L68.9 38.2C68.9 38 69 37.9 69.1 37.8L99.8 7C100 6.8 100.2 6.8 100.4 6.9C100.6 7 100.8 7.2 100.8 7.4L100.8 68.9C100.8 69.1 100.7 69.2 100.6 69.3L69.9 100C69.8 100.2 69.6 100.2 69.5 100.2ZM70.1 38.4L70.1 98.2L99.7 68.6L99.7 8.8L70.1 38.4Z" />
				</g>
			</g>
		</g>
		<g id="Layer">
			<g id="Layer">
				<path id="Layer" class="shp0" d="M38.7 7.4L100.2 7.4L100.2 68.9L38.7 68.9L38.7 7.4Z" />
			</g>
			<g id="Layer">
				<path id="Layer" fill-rule="evenodd" class="shp1" d="M100.2 69.5L38.7 69.5C38.4 69.5 38.1 69.2 38.1 68.9L38.1 7.4C38.1 7.1 38.4 6.8 38.7 6.8L100.2 6.8C100.5 6.8 100.8 7.1 100.8 7.4L100.8 68.9C100.8 69.2 100.6 69.5 100.2 69.5ZM39.3 68.3L99.6 68.3L99.6 8L39.3 8L39.3 68.3Z" />
			</g>
		</g>
	</g>
	<path id="Layer" fill-rule="evenodd" class="shp1" d="M55.9 41.1L68.6 21.3L79.9 21.3L79.9 39.8L83.6 39.8L83.6 47.7L79.9 47.7L79.9 54.9L70.6 54.9L70.6 47.7L55.9 47.7L55.9 41.1ZM70.6 39.8L70.6 31.1L65.5 39.8L70.6 39.8Z" />
	<path id="Layer" fill-rule="evenodd" class="shp1" d="M176.8 41.1L189.5 21.3L200.8 21.3L200.8 39.8L204.5 39.8L204.5 47.7L200.8 47.7L200.8 54.9L191.5 54.9L191.5 47.7L176.8 47.7L176.8 41.1ZM191.5 39.8L191.5 31.1L186.4 39.8L191.5 39.8Z" />
</svg>