<svg xmlns="http://www.w3.org/2000/svg" viewBox="0 0 32.39 32.39"><title>accessibility-icon</title><g id="e0015aac-516d-46fe-94af-b5772f4c54ee" data-name="Extras"><rect x="6.78" y="0.5" width="25.11" height="25.11" style="fill:#fff"/><polygon points="0.5 31.89 6.78 25.61 6.78 0.5 0.5 6.78 0.5 31.89 0.5 31.89" style="fill:#fff"/><polygon points="25.61 31.89 31.89 25.61 6.78 25.61 0.5 31.89 25.61 31.89" style="fill:#fff"/><path d="M32.39.5a.5.5,0,0,0-.5-.5H6.71L6.65,0a.46.46,0,0,0-.23.12L.15,6.42A.39.39,0,0,0,0,6.59a.41.41,0,0,0,0,.19V31.89A.32.32,0,0,0,0,32a.17.17,0,0,0,0,.1s0,0,0,0a.39.39,0,0,0,.08.1l0,0,.09.07,0,0a.43.43,0,0,0,.19,0H25.61a.58.58,0,0,0,.19,0,.46.46,0,0,0,.16-.11L32.24,26a.48.48,0,0,0,.12-.22.15.15,0,0,0,0-.07.14.14,0,0,0,0-.06Zm-1,24.61H7.28V1H31.39ZM1,30.68V7.28H6.28V25.4l-.78.78ZM6.28,6.28H1.71L6.28,1.71Zm-.07,20.6L7,26.11H25.11v5.28H1.71Zm19.9,3.8V26.11h4.57Z" style="fill:#1d1d1b"/><rect x="13.06" y="8.24" width="12.56" height="3.59" style="fill:#1d1d1b"/><rect x="13.06" y="14.28" width="12.56" height="3.59" style="fill:#1d1d1b"/></g></svg>