<svg xmlns="http://www.w3.org/2000/svg" viewBox="0 0 31.89 31.89"><title>accessibility-icon_1</title><g id="f336df09-7ee2-4b73-a21e-3ecf443c4a89" data-name="Extras"><rect x="6.53" y="0.25" width="25.11" height="25.11" style="fill:#fff"/><rect x="6.53" y="0.25" width="25.11" height="25.11" style="fill:#fff"/><polygon points="0.25 31.64 6.53 25.36 6.53 0.25 0.25 6.53 0.25 31.64 0.25 31.64" style="fill:#fff"/><polygon points="25.36 31.64 31.64 25.36 6.53 25.36 0.25 31.64 25.36 31.64" style="fill:#fff"/><path d="M31.89.25A.25.25,0,0,0,31.64,0H6.51a.23.23,0,0,0-.16.06h0L.07,6.35A.29.29,0,0,0,0,6.53V31.64s0,0,0,.05,0,0,0,0v0l.05.06h0l0,0,0,0,.1,0H25.36a.25.25,0,0,0,.18-.08l6.27-6.27h0a.25.25,0,0,0,.06-.16s0,0,0,0Zm-.5,24.86H6.78V.5H31.39ZM.5,31V6.78H6.28V25.26ZM6.28,6.28H.85L6.28.85Zm.35,19.33H25.11v5.78H.85Zm19,5.42V25.61H31Z"/><rect x="12.81" y="7.99" width="12.56" height="3.59"/><rect x="12.81" y="14.03" width="12.56" height="3.59"/></g></svg>