<svg xmlns="http://www.w3.org/2000/svg" viewBox="0 0 465.54 38.67"><title>experiences-things</title><g id="f34cc5f4-94be-45c7-b4af-04958d2074ad" data-name="Extras"><polygon points="213.94 0.5 188.83 0.5 163.72 0.5 138.61 0.5 113.5 0.5 88.39 0.5 63.28 0.5 38.17 0.5 13.05 0.5 0.5 13.05 0.5 38.16 452.49 38.16 465.05 25.61 465.05 0.5 213.94 0.5"/><polygon points="26.11 26.11 26.11 36.96 36.96 26.11 26.11 26.11" style="fill:none"/><polygon points="76.33 26.11 76.33 36.96 87.18 26.11 76.33 26.11" style="fill:none"/><polygon points="1.71 37.67 25.11 37.67 25.11 26.11 13.26 26.11 1.71 37.67" style="fill:none"/><polygon points="51.93 37.67 75.33 37.67 75.33 26.11 63.48 26.11 51.93 37.67" style="fill:none"/><polygon points="51.22 26.11 51.22 36.96 62.07 26.11 51.22 26.11" style="fill:none"/><polygon points="26.82 37.67 50.22 37.67 50.22 26.11 38.37 26.11 26.82 37.67" style="fill:none"/><polygon points="201.88 26.11 201.88 36.96 212.73 26.11 201.88 26.11" style="fill:none"/><polygon points="162.23 27.8 152.37 37.67 175.77 37.67 175.77 26.11 163.92 26.11 162.23 27.8" style="fill:none"/><polygon points="176.77 26.11 176.77 36.96 187.62 26.11 176.77 26.11" style="fill:none"/><polygon points="177.48 37.67 200.88 37.67 200.88 26.11 189.03 26.11 177.48 37.67" style="fill:none"/><polygon points="77.04 37.67 100.44 37.67 100.44 26.11 88.59 26.11 77.04 37.67" style="fill:none"/><polygon points="102.15 37.67 125.55 37.67 125.55 26.11 113.7 26.11 102.15 37.67" style="fill:none"/><polygon points="101.44 26.11 101.44 36.96 112.29 26.11 101.44 26.11" style="fill:none"/><polygon points="127.26 37.67 150.66 37.67 150.66 26.11 138.81 26.11 127.26 37.67" style="fill:none"/><polygon points="162.51 26.11 151.66 26.11 151.66 36.96 161.52 27.1 162.51 26.11" style="fill:none"/><polygon points="126.55 26.11 126.55 36.96 137.4 26.11 126.55 26.11" style="fill:none"/><polygon points="76.33 26.11 76.33 36.96 87.18 26.11 76.33 26.11" style="fill:none"/><polygon points="51.93 37.67 75.33 37.67 75.33 26.11 63.48 26.11 51.93 37.67" style="fill:none"/><polygon points="102.15 37.67 125.55 37.67 125.55 26.11 113.7 26.11 102.15 37.67" style="fill:none"/><polygon points="77.04 37.67 100.44 37.67 100.44 26.11 88.59 26.11 77.04 37.67" style="fill:none"/><polygon points="101.44 26.11 101.44 36.96 112.29 26.11 101.44 26.11" style="fill:none"/><polygon points="51.22 26.11 51.22 36.96 62.07 26.11 51.22 26.11" style="fill:none"/><polygon points="1.71 37.67 25.11 37.67 25.11 26.11 13.26 26.11 1.71 37.67" style="fill:none"/><polygon points="26.82 37.67 50.22 37.67 50.22 26.11 38.37 26.11 26.82 37.67" style="fill:none"/><polygon points="26.11 26.11 26.11 36.96 36.96 26.11 26.11 26.11" style="fill:none"/><polygon points="201.88 26.11 201.88 36.96 212.73 26.11 201.88 26.11" style="fill:none"/><polygon points="177.48 37.67 200.88 37.67 200.88 26.11 189.03 26.11 177.48 37.67" style="fill:none"/><polygon points="126.55 26.11 126.55 36.96 137.4 26.11 126.55 26.11" style="fill:none"/><polygon points="162.51 26.11 151.66 26.11 151.66 36.96 161.52 27.1 162.51 26.11" style="fill:none"/><polygon points="127.26 37.67 150.66 37.67 150.66 26.11 138.81 26.11 127.26 37.67" style="fill:none"/><polygon points="162.23 27.8 152.37 37.67 175.77 37.67 175.77 26.11 163.92 26.11 162.23 27.8" style="fill:none"/><polygon points="176.77 26.11 176.77 36.96 187.62 26.11 176.77 26.11" style="fill:none"/><polygon points="77.04 37.67 100.44 37.67 100.44 26.11 88.59 26.11 77.04 37.67" style="fill:none"/><polygon points="76.33 26.11 76.33 36.96 87.18 26.11 76.33 26.11" style="fill:none"/><polygon points="127.26 37.67 150.66 37.67 150.66 26.11 138.81 26.11 127.26 37.67" style="fill:none"/><polygon points="126.55 26.11 126.55 36.96 137.4 26.11 126.55 26.11" style="fill:none"/><polygon points="102.15 37.67 125.55 37.67 125.55 26.11 113.7 26.11 102.15 37.67" style="fill:none"/><polygon points="101.44 26.11 101.44 36.96 112.29 26.11 101.44 26.11" style="fill:none"/><polygon points="1.71 37.67 25.11 37.67 25.11 26.11 13.26 26.11 1.71 37.67" style="fill:none"/><polygon points="26.82 37.67 50.22 37.67 50.22 26.11 38.37 26.11 26.82 37.67" style="fill:none"/><polygon points="51.22 26.11 51.22 36.96 62.07 26.11 51.22 26.11" style="fill:none"/><polygon points="51.93 37.67 75.33 37.67 75.33 26.11 63.48 26.11 51.93 37.67" style="fill:none"/><polygon points="26.11 26.11 26.11 36.96 36.96 26.11 26.11 26.11" style="fill:none"/><polygon points="201.88 26.11 201.88 36.96 212.73 26.11 201.88 26.11" style="fill:none"/><polygon points="162.51 26.11 151.66 26.11 151.66 36.96 161.52 27.1 162.51 26.11" style="fill:none"/><polygon points="176.77 26.11 176.77 36.96 187.62 26.11 176.77 26.11" style="fill:none"/><polygon points="162.23 27.8 152.37 37.67 175.77 37.67 175.77 26.11 163.92 26.11 162.23 27.8" style="fill:none"/><polygon points="177.48 37.67 200.88 37.67 200.88 26.11 189.03 26.11 177.48 37.67" style="fill:none"/><path d="M465,0H13l-.06,0h-.07a.42.42,0,0,0-.16.11h0L.15,12.7h0a.42.42,0,0,0-.11.16.17.17,0,0,0,0,.07S0,13,0,13s0,0,0,.07V38.17a.39.39,0,0,0,0,.18H0l0,0,0,.05.09.1,0,0,.06,0h0a.65.65,0,0,0,.19,0H452.7l1-1h0l11.55-11.56h0l.29-.29V0ZM427.88,37V26.11h10.85Zm-12.56-23.4V1h24.11V25.11H415.32ZM12.56,1.71V12.56H1.71ZM1,13.56H12.56V25.4L1,37ZM25.11,37.67H1.71L13.26,26.11H25.11Zm0-12.56H13.56V1H37.67V25.11H25.11Zm1,1H37L26.11,37ZM50.22,37.67H26.82L38.37,26.11H50.22Zm0-12.56H38.67V1H62.78V25.11H50.22Zm1,1H62.07L51.22,37ZM75.33,37.67H51.93L63.48,26.11H75.33Zm0-12.56H63.78V1H87.89V25.11H75.33Zm1,1H87.18L76.33,37Zm24.11,11.56H77L88.59,26.11h11.85Zm0-12.56H88.89V1H113V25.11H100.44Zm1,1h10.85L101.44,37Zm24.11,11.56h-23.4L113.7,26.11h11.85Zm0-12.56H114V1h24.11V25.11H125.55Zm1,1H137.4L126.55,37Zm24.11,11.56h-23.4l11.55-11.56h11.85Zm0-12.56H139.11V1h24.11V25.11H150.66Zm1,1h10.85l-1,1L151.66,37Zm24.11,11.56h-23.4l9.86-9.87,1.69-1.69h11.85Zm0-12.56H164.22V1h24.11V25.11H175.77Zm1,1h10.85L176.77,37Zm24.11,11.56h-23.4L189,26.11h11.85Zm0-12.56H189.33V1h24.11V25.11H200.88Zm1,1h10.85L201.88,37ZM226,37.67h-23.4l10.85-10.85.7-.71H226Zm0-12.56H214.44V1h24.11V25.11H226Zm1,1h10.85L227,37Zm24.12,11.56H227.7l10.85-10.85.71-.71h11.85Zm0-12.56H239.55V1h24.11V25.11H251.11Zm1,1H263L252.11,37Zm24.11,11.56H252.81l11.56-11.56h11.85Zm0-12.56H264.66V1h24.11V25.11H276.22Zm1,1h10.85L277.22,37Zm24.11,11.56h-23.4l11.55-11.56h11.85Zm0-12.56H289.77V1h24.11V25.11H301.33Zm1,1h10.85L302.33,37Zm24.11,11.56H303l11.55-11.56h11.85Zm0-12.56H314.88V1H339V25.11H326.44Zm1,1h10.85L327.44,37Zm24.11,11.56h-23.4L339.7,26.11h11.85Zm0-12.56H340V1H364.1V25.11H351.55Zm1,1H363.4l-1,1L352.55,37Zm24.11,11.56h-23.4l9.86-9.87,1.69-1.69h11.85Zm0-12.56H365.1V1h24.11V25.11H376.66Zm1,1h10.85L377.66,37Zm24.11,11.56h-23.4l11.55-11.56h11.85Zm0-12.56H390.21V1h24.11V25.11H401.77Zm1,1h10.85L402.77,37Zm12.55,11.56H403.48l10.84-10.85.71-.71h11.85V37.67Zm36.67,0h-23.4l10.84-10.85.71-.71H452Zm1-.71V26.11h10.85ZM464.54,1.71v23.4H440.43V1h24.11Z" style="fill:#fff"/><path d="M21.71,6h7.65v3.4H25.59v1.68h3.19v3.38H25.59v1.81h3.93v3.4H21.71Z" style="fill:#fff"/><path d="M247.7,6h7.66v3.4h-3.77v1.68h3.18v3.38h-3.18v1.81h3.92v3.4H247.7Z" style="fill:#fff"/><path d="M172.37,6H180v3.4h-3.76v1.68h3.18v3.38h-3.18v1.81h3.92v3.4h-7.81Z" style="fill:#fff"/><path d="M97,6h7.65v3.4h-3.76v1.68h3.18v3.38h-3.18v1.81h3.92v3.4H97Z" style="fill:#fff"/><path d="M48.45,12.79,44.12,6h4.56l2,3.87,2-3.87h4.57L53,12.81l4.33,6.83H53l-2.27-4-2.3,4h-4.3Z" style="fill:#fff"/><path d="M70.87,6H76.2a4.24,4.24,0,0,1,4.6,4.55,4.33,4.33,0,0,1-4.55,4.59h-1.5v4.53H70.87Zm4.7,5.88a1.21,1.21,0,0,0,1.25-1.35,1.18,1.18,0,0,0-1.21-1.27h-.86v2.62Z" style="fill:#fff"/><path d="M120.47,6h4.82c3.4,0,5,1.64,5,4.32a4.21,4.21,0,0,1-1.79,3.61l3.12,5.74h-4.28l-2.3-4.82h-.7v4.82h-3.89ZM125,11.65a1.2,1.2,0,0,0,1.35-1.23c0-.76-.47-1.19-1.35-1.19h-.64v2.42Z" style="fill:#fff"/><path d="M149.22,6h3.89V19.64h-3.89Z" style="fill:#fff"/><path d="M195.29,6h4l4.39,7.75V6h3.83V19.64h-3.87L199.1,12v7.64h-3.81Z" style="fill:#fff"/><path d="M228.08,5.75a7.49,7.49,0,0,1,4.12,1.17l-1.07,3.38a4.37,4.37,0,0,0-2.86-1,3.33,3.33,0,0,0-3.43,3.5,3.34,3.34,0,0,0,3.43,3.53,4.37,4.37,0,0,0,2.86-1l1.07,3.38a7.49,7.49,0,0,1-4.12,1.17,6.92,6.92,0,0,1-7.28-7.07A6.92,6.92,0,0,1,228.08,5.75Z" style="fill:#fff"/><path d="M275,15a2.45,2.45,0,0,0,1.87,1.35c.61,0,.86-.25.86-.61,0-1.38-5.56-1.42-5.56-5.77,0-2.6,1.89-4.22,4.72-4.22A4.7,4.7,0,0,1,281.57,9l-3.22,1.44c-.28-.56-.61-1.25-1.55-1.25-.46,0-.74.26-.74.63,0,1.52,5.61,1.44,5.61,5.56,0,2.62-1.74,4.47-4.9,4.47a5.24,5.24,0,0,1-5-3.32Z" style="fill:#fff"/><path d="M325,9.37h-2.8V6h9.51v3.4h-2.83V19.64H325Z" style="fill:#fff"/><path d="M346,6h3.86v5.11h4.31V6h3.87V19.6H354.2V14.51h-4.31V19.6H346Z" style="fill:#fff"/><path d="M375.22,6h3.88V19.64h-3.88Z" style="fill:#fff"/><path d="M396.85,6h4l4.39,7.75V6H409V19.64h-3.86L400.66,12v7.64h-3.81Z" style="fill:#fff"/><path d="M420.47,12.79a7,7,0,0,1,7.32-7.07,7.21,7.21,0,0,1,5.72,2.48l-2.46,2.5A3.77,3.77,0,0,0,428,9.27a3.35,3.35,0,0,0-3.45,3.52,3.43,3.43,0,0,0,3.59,3.55,4.28,4.28,0,0,0,2.62-.65v-.76h-2.21V11.75h5.76v6a10.08,10.08,0,0,1-6.5,2.13A7,7,0,0,1,420.47,12.79Z" style="fill:#fff"/><path d="M450.78,15a2.45,2.45,0,0,0,1.88,1.35c.6,0,.85-.25.85-.61,0-1.38-5.56-1.42-5.56-5.77,0-2.6,1.89-4.22,4.72-4.22A4.7,4.7,0,0,1,457.34,9l-3.22,1.44c-.27-.56-.61-1.25-1.54-1.25-.47,0-.74.26-.74.63,0,1.52,5.6,1.44,5.6,5.56,0,2.62-1.74,4.47-4.9,4.47a5.25,5.25,0,0,1-5-3.32Z" style="fill:#fff"/><polygon points="299.89 7.65 299.89 9.63 304.19 12.8 299.89 15.98 299.89 17.96 306.18 13.31 306.18 12.3 299.89 7.65" style="fill:#fff"/></g></svg>