<svg id="bd4dd709-80bb-4040-8558-604f83775a3c" data-name="Logos" xmlns="http://www.w3.org/2000/svg" viewBox="0 0 236.63 209.95"><title>hopscotch-logo-main</title><polygon points="183.69 0.5 131.45 0.5 79.21 0.5 26.98 0.5 0.86 26.62 0.86 78.86 53.1 78.86 53.1 131.09 26.98 157.21 26.98 209.45 79.21 209.45 105.33 183.33 157.57 183.33 209.81 183.33 235.93 157.21 235.93 104.97 235.93 52.74 235.93 0.5 183.69 0.5"/><path d="M199.51,12.46h11c6,0,9.55,3.72,9.55,9.43s-3.72,9.5-9.42,9.5h-3.12v9.38h-8.05Zm9.75,12.18a2.5,2.5,0,0,0,2.59-2.79,2.43,2.43,0,0,0-2.51-2.63h-1.78v5.42Z" style="fill:#fff"/><path d="M194.52,78.81c0-8.16,5.94-14.63,15.29-14.63s15.28,6.47,15.28,14.63-5.94,14.73-15.28,14.73S194.52,87.11,194.52,78.81Zm8.41,0c0,4.25,2.75,7.37,6.88,7.37s6.87-3.12,6.87-7.37-2.75-7.27-6.87-7.27S202.93,74.69,202.93,78.81Z" style="fill:#fff"/><path d="M92.8,12.46h8V23.1h9V12.46h8.05V40.77h-8.05V30.18h-9V40.77h-8Z" style="fill:#fff"/><path d="M142.28,26.58c0-8.17,5.95-14.64,15.29-14.64s15.29,6.47,15.29,14.64-6,14.72-15.29,14.72S142.28,34.87,142.28,26.58Zm8.41,0c0,4.24,2.75,7.36,6.88,7.36s6.87-3.12,6.87-7.36-2.75-7.28-6.87-7.28S150.69,22.45,150.69,26.58Z" style="fill:#fff"/><path d="M160.87,64.18a15.62,15.62,0,0,1,8.57,2.42l-2.22,7a9.21,9.21,0,0,0-5.95-2.1,7,7,0,0,0-7.16,7.27c0,4.21,2.87,7.37,7.16,7.37a9.21,9.21,0,0,0,5.95-2.11l2.22,7a15.62,15.62,0,0,1-8.57,2.43c-9.18,0-15.17-6.52-15.17-14.73S151.69,64.18,160.87,64.18Z" style="fill:#fff"/><path d="M101.79,83.34c.81,1.5,2.43,2.8,3.89,2.8,1.25,0,1.78-.53,1.78-1.26,0-2.87-11.53-2.95-11.53-12,0-5.38,3.92-8.73,9.79-8.73a9.75,9.75,0,0,1,9.66,6.87l-6.67,3c-.57-1.17-1.25-2.59-3.19-2.59-1,0-1.54.53-1.54,1.3,0,3.15,11.6,3,11.6,11.52,0,5.42-3.59,9.27-10.15,9.27a10.89,10.89,0,0,1-10.35-6.88Z" style="fill:#fff"/><path d="M197.27,116.94h8v10.63h9V116.94h8v28.31h-8v-10.6h-9v10.6h-8Z" style="fill:#fff"/><path d="M160.87,116.41a15.54,15.54,0,0,1,8.57,2.43l-2.22,7a9.15,9.15,0,0,0-5.95-2.11,7,7,0,0,0-7.16,7.28c0,4.21,2.87,7.36,7.16,7.36a9.21,9.21,0,0,0,5.95-2.1l2.22,7a15.62,15.62,0,0,1-8.57,2.42c-9.18,0-15.17-6.51-15.17-14.72S151.69,116.41,160.87,116.41Z" style="fill:#fff"/><path d="M75.15,150.09H69.37v-7H89.06v7H83.2v21.28h-8Z" style="fill:#fff"/><path d="M236.39.31h0l0-.06,0,0-.1-.09-.05,0,0,0h0a.39.39,0,0,0-.18,0h-209l-.06,0h-.06a.45.45,0,0,0-.17.11h0L.51,26.26h0a.45.45,0,0,0-.11.17s0,0,0,.06,0,0,0,.06,0,.05,0,.07V78.86A.39.39,0,0,0,.4,79h0l0,0,0,.05.09.1,0,0,.06,0h0a.58.58,0,0,0,.19,0H52.6v51.53l-26,26h0a.44.44,0,0,0-.1.16s0,0,0,.06,0,0,0,.07,0,0,0,.06v52.24a.37.37,0,0,0,0,.18h0s0,0,0,.06l0,.05.09.09.05,0,.06,0h0a.41.41,0,0,0,.19,0H79.21a.65.65,0,0,0,.2,0h0a.57.57,0,0,0,.16-.11h0l26-26H209.81a.43.43,0,0,0,.19,0h0a.42.42,0,0,0,.16-.11h0l26.12-26.12h0a.46.46,0,0,0,.11-.16.13.13,0,0,1,0-.06.13.13,0,0,0,0-.06.25.25,0,0,0,0-.07V.5A.58.58,0,0,0,236.39.31ZM132,27.12V1h51.24V52.24H132Zm0,52.24V53.24h51.24v51.23H132ZM79.71,27.12V1H131V52.24H79.71ZM54.3,78.36,78.71,53.94V78.36Zm24.41,1v25.41L53.6,129.89V79.36ZM53.6,77.65V53.24H78Zm0-25.41V26.83l.7-.71L75.74,4.68l3-3V52.24ZM27.48,1H78L56.57,22.44l-3.68,3.68H27.48Zm0,26.12H52.6V52.24H27.48Zm-1-25.41V26.12H2.07ZM1.36,27.12H26.48V52.53L22.8,56.21,1.36,77.65Zm.71,51.24L23.51,56.92l3.67-3.68H52.6V78.36ZM52.6,132.3v24.41H28.18ZM27.48,157.71H52.6v25.41L27.48,208.24ZM78.71,209H28.18L53.3,183.83H78.71Zm1-.71V183.83h24.42Zm25.12-75.94v50.53H53.6V131.59h51.23Zm0-1.71H54.3l24.41-24.41.71-.71h25.41Zm0-26.12H79.71V53.24H131v51.23H104.83ZM131,106.18v24.41H106.54Zm-25.12,23.71V105.47h24.41Zm0,27.82V131.59H131V157l-.71.71-24.41,24.41Zm51.24,25.12H106.54l25.12-25.12h25.41Zm0-26.12H132V105.47h51.24v51.24H157.07Zm1,1h24.41l-24.41,24.41Zm51.24,25.12H158.78l25.12-25.12h25.41Zm1-.71V157.71h24.41Zm25.12-75.94v50.53H184.19V105.47h51.24Zm0-52.24v50.53H184.19V53.24h51.24Zm0-52.23V52.24H184.19V1h51.24Z" style="fill:#fff"/></svg>