<svg id="fabc5294-0b4d-419d-b3cb-b4cc9186922a" data-name="Logos" xmlns="http://www.w3.org/2000/svg"
    viewBox="0 0 239.55 63.78">
    <title>hopscotch</title>
    <polygon
        points="213.94 0.5 188.83 0.5 163.72 0.5 138.61 0.5 113.5 0.5 88.39 0.5 63.28 0.5 38.17 0.5 13.05 0.5 0.5 13.05 0.5 38.16 25.61 38.16 50.72 38.16 75.83 38.16 100.94 38.16 126.05 38.16 151.16 38.16 176.27 38.16 201.38 38.16 201.38 63.28 226.49 63.28 239.05 50.72 239.05 25.61 239.05 0.5 213.94 0.5"
        style="fill:#1d1d1b" />
    <path
        d="M203,6a7.49,7.49,0,0,1,4.12,1.16L206,10.55a4.39,4.39,0,0,0-2.86-1,3.34,3.34,0,0,0-3.44,3.5,3.35,3.35,0,0,0,3.44,3.53,4.39,4.39,0,0,0,2.86-1L207.09,19A7.49,7.49,0,0,1,203,20.11,6.92,6.92,0,0,1,195.68,13,6.92,6.92,0,0,1,203,6Z"
        style="fill:#fff" />
    <path d="M174.32,9.63h-2.78V6.25H181V9.63h-2.82V19.86h-3.87Z" style="fill:#fff" />
    <path
        d="M143.81,13c0-3.93,2.86-7,7.35-7s7.35,3.11,7.35,7-2.86,7.07-7.35,7.07S143.81,17,143.81,13Zm4.05,0a3.31,3.31,0,1,0,6.61,0,3.31,3.31,0,1,0-6.61,0Z"
        style="fill:#fff" />
    <path
        d="M127.64,6a7.49,7.49,0,0,1,4.12,1.16l-1.07,3.39a4.39,4.39,0,0,0-2.86-1,3.34,3.34,0,0,0-3.44,3.5,3.35,3.35,0,0,0,3.44,3.53,4.39,4.39,0,0,0,2.86-1L131.76,19a7.49,7.49,0,0,1-4.12,1.16A6.92,6.92,0,0,1,120.35,13,6.92,6.92,0,0,1,127.64,6Z"
        style="fill:#fff" />
    <path
        d="M99.24,15.21a2.44,2.44,0,0,0,1.87,1.34c.6,0,.85-.25.85-.6,0-1.38-5.54-1.42-5.54-5.75,0-2.59,1.89-4.2,4.71-4.2a4.67,4.67,0,0,1,4.64,3.3l-3.21,1.44c-.27-.56-.6-1.24-1.53-1.24-.47,0-.74.25-.74.62,0,1.52,5.58,1.44,5.58,5.54,0,2.6-1.73,4.45-4.88,4.45a5.23,5.23,0,0,1-5-3.3Z"
        style="fill:#fff" />
    <path
        d="M70.88,6.25h5.31a4.22,4.22,0,0,1,4.59,4.53,4.32,4.32,0,0,1-4.53,4.57h-1.5v4.51H70.88Zm4.69,5.85a1.2,1.2,0,0,0,1.24-1.34,1.16,1.16,0,0,0-1.2-1.26h-.86v2.6Z"
        style="fill:#fff" />
    <path d="M19.58,6.25h3.87v5.11h4.32V6.25h3.87V19.86H27.77V14.77H23.45v5.09H19.58Z" style="fill:#fff" />
    <path
        d="M43.37,13c0-3.93,2.86-7,7.35-7s7.35,3.11,7.35,7-2.86,7.07-7.35,7.07S43.37,17,43.37,13Zm4.05,0A3.31,3.31,0,1,0,54,13a3.31,3.31,0,1,0-6.61,0Z"
        style="fill:#fff" />
    <path d="M220.51,6.25h3.87v5.11h4.32V6.25h3.87V19.86H228.7V14.77h-4.32v5.09h-3.87Z" style="fill:#fff" />
    <path
        d="M239.51.31h0l0-.06,0,0-.09-.09,0,0-.06,0h0a.37.37,0,0,0-.18,0H13l-.06,0h-.07a.42.42,0,0,0-.16.11h0L.15,12.7h0a.42.42,0,0,0-.11.16.17.17,0,0,0,0,.07S0,13,0,13s0,0,0,.07V38.17a.39.39,0,0,0,0,.18H0l0,0,0,.05.09.1,0,0,.06,0h0a.65.65,0,0,0,.19,0H200.88V63.28a.58.58,0,0,0,0,.18h0l0,.05,0,0,.09.1,0,0,.06,0h0a.65.65,0,0,0,.19,0h25.11a.58.58,0,0,0,.19,0h0a.76.76,0,0,0,.16-.11h0L239.4,51.07h0a.46.46,0,0,0,.11-.16.13.13,0,0,0,0-.06l0-.06s0,0,0-.07V.5A.58.58,0,0,0,239.51.31ZM227,50.22V38.37l11.56-11.55v23.4Zm-.7-12.55H214.44V26.11h23.4L227,37Zm-12.85,0H202.59l10.85-10.85ZM201.88,37V26.11h10.85Zm0,1.71h11.56V50.51l-1.7,1.7-9.86,9.86Zm12.56,0H226V50.22H214.44ZM238.55,1V25.11H214.44V1h24.11ZM213.44,1V25.11H189.33V1h24.11ZM176.77,26.11h10.85L176.77,37ZM188.33,1V25.11H164.22V1h24.11ZM161.52,27.1,151.66,37V26.11h10.85ZM163.22,1V25.11H139.11V1h24.11ZM126.55,26.11H137.4L126.55,37ZM138.11,1V25.11H114V1h24.11ZM101.44,26.11h10.85L101.44,37ZM113,1V25.11H88.89V1H113ZM76.33,26.11H87.18L76.33,37ZM87.89,1V25.11H63.78V1H87.89ZM51.22,26.11H62.07L51.22,37ZM62.78,1V25.11H38.67V1H62.78ZM26.11,26.11H37L26.11,37ZM37.67,1V25.11H13.56V1H37.67ZM1,13.56H12.56V25.4L1,37ZM12.56,1.71V12.56H1.71Zm.7,24.4H25.11V37.67H1.71Zm25.11,0H50.22V37.67H26.82Zm25.11,0H75.33V37.67H51.93Zm25.11,0h11.85V37.67H77Zm25.11,0h11.85V37.67h-23.4Zm25.11,0h11.85V37.67h-23.4Zm23.42,1.69,1.69-1.69h11.85V37.67h-23.4Zm15.25,9.87L189,26.11h11.85V37.67Zm35,15.24,1.69-1.69H226V62.78h-23.4ZM227,62.07V51.22h10.85Z"
        style="fill:#fff" />
</svg>