<svg xmlns="http://www.w3.org/2000/svg" viewBox="0 0 158 47" width="158" height="47">
	<style>
		tspan { white-space:pre }
		.shp0 { fill: #ffffff;stroke: #000000;stroke-linecap:round;stroke-linejoin:round;stroke-width: 0.5 } 
		.shp1 { fill: #000000 } 
		.shp2 { fill: #ffffff } 
		.shp3 { fill: none;stroke: #000000;stroke-linecap:round;stroke-linejoin:round;stroke-width: 0.5 } 
	</style>
	<g id="Layer">
		<g id="Layer">
			<g id="Layer">
				<path id="Layer" class="shp0" d="M155.18 20.55L139.18 20.55L139.18 4.55L155.18 4.55L155.18 20.55Z" />
				<path id="Layer" class="shp0" d="M147.21 28.52L131.21 28.52L131.21 12.52L147.21 12.52L147.21 28.52Z" />
				<path id="Layer" class="shp0" d="M131.2 28.5L131.2 12.5L139.2 4.5L139.2 20.5L131.2 28.5Z" />
				<path id="Layer" class="shp0" d="M147.2 12.5L131.2 12.5L139.2 4.5L155.2 4.5L147.2 12.5Z" />
				<path id="Layer" class="shp0" d="M131.2 28.5L147.2 28.5L155.2 20.5L139.2 20.5L131.2 28.5Z" />
				<path id="Layer" class="shp0" d="M147.2 28.5L147.2 12.5L155.2 4.5L155.2 20.5L147.2 28.5Z" />
			</g>
			<path id="Layer" class="shp0" d="M155.18 20.55L139.18 20.55L139.18 4.55L155.18 4.55L155.18 20.55Z" />
		</g>
		<g id="Layer">
			<g id="Layer">
				<path id="Layer" class="shp0" d="M139.24 20.55L123.24 20.55L123.24 4.55L139.24 4.55L139.24 20.55Z" />
				<path id="Layer" class="shp0" d="M131.17 28.52L115.17 28.52L115.17 12.52L131.17 12.52L131.17 28.52Z" />
				<path id="Layer" class="shp0" d="M115.3 28.5L115.3 12.5L123.2 4.5L123.2 20.5L115.3 28.5Z" />
				<path id="Layer" class="shp0" d="M131.2 12.5L115.3 12.5L123.2 4.5L139.2 4.5L131.2 12.5Z" />
				<path id="Layer" class="shp0" d="M115.3 28.5L131.2 28.5L139.2 20.5L123.2 20.5L115.3 28.5Z" />
				<path id="Layer" class="shp0" d="M131.2 28.5L131.2 12.5L139.2 4.5L139.2 20.5L131.2 28.5Z" />
			</g>
			<path id="Layer" class="shp0" d="M139.24 20.55L123.24 20.55L123.24 4.55L139.24 4.55L139.24 20.55Z" />
		</g>
		<g id="Layer">
			<g id="Layer">
				<path id="Layer" class="shp0" d="M123.2 20.55L107.2 20.55L107.2 4.55L123.2 4.55L123.2 20.55Z" />
				<path id="Layer" class="shp0" d="M115.23 28.52L99.23 28.52L99.23 12.52L115.23 12.52L115.23 28.52Z" />
				<path id="Layer" class="shp0" d="M99.3 28.5L99.3 12.5L107.3 4.5L107.3 20.5L99.3 28.5Z" />
				<path id="Layer" class="shp0" d="M115.3 12.5L99.3 12.5L107.3 4.5L123.2 4.5L115.3 12.5Z" />
				<path id="Layer" class="shp0" d="M99.3 28.5L115.3 28.5L123.2 20.5L107.3 20.5L99.3 28.5Z" />
				<path id="Layer" class="shp0" d="M115.3 28.5L115.3 12.5L123.2 4.5L123.2 20.5L115.3 28.5Z" />
			</g>
			<path id="Layer" class="shp0" d="M123.2 20.55L107.2 20.55L107.2 4.55L123.2 4.55L123.2 20.55Z" />
		</g>
		<path id="Layer" class="shp1" d="M143.4 8.2L145.9 8.2L145.9 11.5L148.6 11.5L148.6 8.2L151.1 8.2L151.1 16.9L148.6 16.9L148.6 13.7L145.9 13.7L145.9 16.9L143.4 16.9L143.4 8.2Z" />
		<path id="Layer" class="shp1" d="M132.2 8C133.2 8 134.2 8.3 134.8 8.7L134.1 10.9C133.7 10.6 133.1 10.3 132.3 10.3C131 10.3 130.1 11.3 130.1 12.5C130.1 13.8 131 14.8 132.3 14.8C133.1 14.8 133.7 14.5 134.1 14.2L134.8 16.4C134.2 16.8 133.2 17.1 132.2 17.1C129.4 17.1 127.6 15.1 127.6 12.6C127.6 10 129.4 8 132.2 8Z" />
		<path id="Layer" class="shp1" d="M114 10.3L112.2 10.3L112.2 8.1L118.2 8.1L118.2 10.3L116.4 10.3L116.4 16.8L114 16.8L114 10.3Z" />
		<g id="Layer">
			<g id="Layer">
				<path id="Layer" class="shp0" d="M107.27 20.55L91.27 20.55L91.27 4.55L107.27 4.55L107.27 20.55Z" />
				<path id="Layer" class="shp0" d="M99.3 28.52L83.3 28.52L83.3 12.52L99.3 12.52L99.3 28.52Z" />
				<path id="Layer" class="shp0" d="M83.3 28.5L83.3 12.5L91.3 4.5L91.3 20.5L83.3 28.5Z" />
				<path id="Layer" class="shp0" d="M99.3 12.5L83.3 12.5L91.3 4.5L107.3 4.5L99.3 12.5Z" />
				<path id="Layer" class="shp0" d="M83.3 28.5L99.3 28.5L107.3 20.5L91.3 20.5L83.3 28.5Z" />
				<path id="Layer" class="shp0" d="M99.3 28.5L99.3 12.5L107.3 4.5L107.3 20.5L99.3 28.5Z" />
			</g>
			<path id="Layer" class="shp0" d="M107.27 20.55L91.27 20.55L91.27 4.55L107.27 4.55L107.27 20.55Z" />
		</g>
		<g id="Layer">
			<g id="Layer">
				<path id="Layer" class="shp0" d="M91.33 20.55L75.33 20.55L75.33 4.55L91.33 4.55L91.33 20.55Z" />
				<path id="Layer" class="shp0" d="M83.36 28.52L67.36 28.52L67.36 12.52L83.36 12.52L83.36 28.52Z" />
				<path id="Layer" class="shp0" d="M67.3 28.5L67.3 12.5L75.3 4.5L75.3 20.5L67.3 28.5Z" />
				<path id="Layer" class="shp0" d="M83.3 12.5L67.3 12.5L75.3 4.5L91.3 4.5L83.3 12.5Z" />
				<path id="Layer" class="shp0" d="M67.3 28.5L83.3 28.5L91.3 20.5L75.3 20.5L67.3 28.5Z" />
				<path id="Layer" class="shp0" d="M83.3 28.5L83.3 12.5L91.3 4.5L91.3 20.5L83.3 28.5Z" />
			</g>
			<path id="Layer" class="shp0" d="M91.33 20.55L75.33 20.55L75.33 4.55L91.33 4.55L91.33 20.55Z" />
		</g>
		<g id="Layer">
			<g id="Layer">
				<path id="Layer" class="shp0" d="M75.29 20.55L59.29 20.55L59.29 4.55L75.29 4.55L75.29 20.55Z" />
				<path id="Layer" class="shp0" d="M67.32 28.52L51.32 28.52L51.32 12.52L67.32 12.52L67.32 28.52Z" />
				<path id="Layer" class="shp0" d="M51.4 28.5L51.4 12.5L59.4 4.5L59.4 20.5L51.4 28.5Z" />
				<path id="Layer" class="shp0" d="M67.3 12.5L51.4 12.5L59.4 4.5L75.3 4.5L67.3 12.5Z" />
				<path id="Layer" class="shp0" d="M51.4 28.5L67.3 28.5L75.3 20.5L59.4 20.5L51.4 28.5Z" />
				<path id="Layer" class="shp0" d="M67.3 28.5L67.3 12.5L75.3 4.5L75.3 20.5L67.3 28.5Z" />
			</g>
			<path id="Layer" class="shp0" d="M75.29 20.55L59.29 20.55L59.29 4.55L75.29 4.55L75.29 20.55Z" />
		</g>
		<path id="Layer" fill-rule="evenodd" class="shp1" d="M94.6 12.5C94.6 10 96.4 8 99.3 8C102.2 8 104 10 104 12.5C104 15 102.2 17 99.3 17C96.4 17 94.6 15 94.6 12.5ZM97.2 12.5C97.2 13.8 98 14.8 99.3 14.8C100.6 14.8 101.4 13.8 101.4 12.5C101.4 11.2 100.6 10.3 99.3 10.3C98 10.3 97.2 11.2 97.2 12.5Z" />
		<path id="Layer" class="shp1" d="M84.3 8C85.3 8 86.3 8.3 86.9 8.7L86.2 10.9C85.8 10.6 85.2 10.3 84.4 10.3C83.1 10.3 82.2 11.3 82.2 12.5C82.2 13.8 83.1 14.8 84.4 14.8C85.2 14.8 85.8 14.5 86.2 14.2L86.9 16.4C86.3 16.8 85.3 17.1 84.3 17.1C81.5 17.1 79.7 15.1 79.7 12.6C79.7 10 81.5 8 84.3 8Z" />
		<path id="Layer" class="shp1" d="M66.3 13.9C66.5 14.4 67 14.8 67.5 14.8C67.9 14.8 68 14.6 68 14.4C68 13.5 64.5 13.5 64.5 10.7C64.5 9.1 65.7 8 67.5 8C69.5 8 70.2 9.4 70.5 10.1L68.5 11C68.3 10.6 68.1 10.2 67.5 10.2C67.2 10.2 67 10.4 67 10.6C67 11.6 70.5 11.5 70.5 14.1C70.5 15.8 69.4 16.9 67.4 16.9C65.4 16.9 64.5 15.4 64.2 14.8L66.3 13.9Z" />
		<g id="Layer">
			<g id="Layer">
				<path id="Layer" class="shp0" d="M59.77 20.55L43.77 20.55L43.77 4.55L59.77 4.55L59.77 20.55Z" />
				<path id="Layer" class="shp0" d="M51.7 28.52L35.7 28.52L35.7 12.52L51.7 12.52L51.7 28.52Z" />
				<path id="Layer" class="shp0" d="M35.8 28.5L35.8 12.5L43.7 4.5L43.7 20.5L35.8 28.5Z" />
				<path id="Layer" class="shp0" d="M51.7 12.5L35.8 12.5L43.7 4.5L59.7 4.5L51.7 12.5Z" />
				<path id="Layer" class="shp0" d="M35.8 28.5L51.7 28.5L59.7 20.5L43.7 20.5L35.8 28.5Z" />
				<path id="Layer" class="shp0" d="M51.7 28.5L51.7 12.5L59.7 4.5L59.7 20.5L51.7 28.5Z" />
			</g>
			<path id="Layer" class="shp0" d="M59.77 20.55L43.77 20.55L43.77 4.55L59.77 4.55L59.77 20.55Z" />
		</g>
		<g id="Layer">
			<g id="Layer">
				<path id="Layer" class="shp0" d="M43.73 20.55L27.73 20.55L27.73 4.55L43.73 4.55L43.73 20.55Z" />
				<path id="Layer" class="shp0" d="M35.76 28.52L19.76 28.52L19.76 12.52L35.76 12.52L35.76 28.52Z" />
				<path id="Layer" class="shp0" d="M19.8 28.5L19.8 12.5L27.8 4.5L27.8 20.5L19.8 28.5Z" />
				<path id="Layer" class="shp0" d="M35.8 12.5L19.8 12.5L27.8 4.5L43.7 4.5L35.8 12.5Z" />
				<path id="Layer" class="shp0" d="M19.8 28.5L35.8 28.5L43.7 20.5L27.8 20.5L19.8 28.5Z" />
				<path id="Layer" class="shp0" d="M35.8 28.5L35.8 12.5L43.7 4.5L43.7 20.5L35.8 28.5Z" />
			</g>
			<path id="Layer" class="shp0" d="M43.73 20.55L27.73 20.55L27.73 4.55L43.73 4.55L43.73 20.55Z" />
		</g>
		<g id="Layer">
			<g id="Layer">
				<path id="Layer" class="shp0" d="M27.79 20.55L11.79 20.55L11.79 4.55L27.79 4.55L27.79 20.55Z" />
				<path id="Layer" class="shp0" d="M19.82 28.52L3.82 28.52L3.82 12.52L19.82 12.52L19.82 28.52Z" />
				<path id="Layer" class="shp0" d="M3.8 28.5L3.8 12.5L11.8 4.5L11.8 20.5L3.8 28.5Z" />
				<path id="Layer" class="shp0" d="M19.8 12.5L3.8 12.5L11.8 4.5L27.8 4.5L19.8 12.5Z" />
				<path id="Layer" class="shp0" d="M3.8 28.5L19.8 28.5L27.8 20.5L11.8 20.5L3.8 28.5Z" />
				<path id="Layer" class="shp0" d="M19.8 28.5L19.8 12.5L27.8 4.5L27.8 20.5L19.8 28.5Z" />
			</g>
			<path id="Layer" class="shp0" d="M27.79 20.55L11.79 20.55L11.79 4.55L27.79 4.55L27.79 20.55Z" />
		</g>
		<path id="Layer" fill-rule="evenodd" class="shp1" d="M52 8.2C53.8 8.2 54.9 9.3 54.9 11.1C54.9 12.8 53.8 14 52 14L51 14L51 16.9L48.5 16.9L48.5 8.2L52 8.2ZM52.4 11C52.4 10.5 52.1 10.2 51.6 10.2L51 10.2L51 11.9L51.6 11.9C52.1 11.9 52.4 11.5 52.4 11Z" />
		<path id="Layer" class="shp1" d="M16 8.2L18.5 8.2L18.5 11.5L21.2 11.5L21.2 8.2L23.7 8.2L23.7 16.9L21.2 16.9L21.2 13.7L18.5 13.7L18.5 16.9L16 16.9L16 8.2Z" />
		<path id="Layer" fill-rule="evenodd" class="shp1" d="M31.1 12.5C31.1 10 32.9 8 35.8 8C38.7 8 40.5 10 40.5 12.5C40.5 15 38.7 17 35.8 17C32.9 17 31.1 15 31.1 12.5ZM33.7 12.5C33.7 13.8 34.5 14.8 35.8 14.8C37.1 14.8 37.9 13.8 37.9 12.5C37.9 11.2 37.1 10.3 35.8 10.3C34.5 10.3 33.7 11.2 33.7 12.5Z" />
	</g>
	<g id="Layer">
		<g id="Layer">
			<g id="Layer">
				<g id="Layer">
					<path id="Layer" class="shp2" d="M139.2 20.5L155.2 20.5L155.2 36.5L139.2 36.5L139.2 20.5Z" />
					<path id="Layer" class="shp3" d="M139.2 20.5L155.2 20.5L155.2 36.5L139.2 36.5L139.2 20.5Z" />
				</g>
				<g id="Layer">
					<path id="Layer" class="shp2" d="M131.2 28.5L147.2 28.5L147.2 44.5L131.2 44.5L131.2 28.5Z" />
					<path id="Layer" class="shp3" d="M131.2 28.5L147.2 28.5L147.2 44.5L131.2 44.5L131.2 28.5Z" />
				</g>
				<g id="Layer">
					<path id="Layer" class="shp2" d="M131.2 44.5L131.2 28.5L139.2 20.5L139.2 36.5L131.2 44.5Z" />
					<path id="Layer" class="shp3" d="M131.2 44.5L131.2 28.5L139.2 20.5L139.2 36.5L131.2 44.5Z" />
				</g>
				<g id="Layer">
					<path id="Layer" class="shp2" d="M147.2 28.5L131.2 28.5L139.2 20.5L155.2 20.5L147.2 28.5Z" />
					<path id="Layer" class="shp3" d="M147.2 28.5L131.2 28.5L139.2 20.5L155.2 20.5L147.2 28.5Z" />
				</g>
				<g id="Layer">
					<path id="Layer" class="shp2" d="M131.2 44.5L147.2 44.5L155.2 36.5L139.2 36.5L131.2 44.5Z" />
					<path id="Layer" class="shp3" d="M131.2 44.5L147.2 44.5L155.2 36.5L139.2 36.5L131.2 44.5Z" />
				</g>
				<g id="Layer">
					<path id="Layer" class="shp2" d="M147.2 44.5L147.2 28.5L155.2 20.5L155.2 36.5L147.2 44.5Z" />
					<path id="Layer" class="shp3" d="M147.2 44.5L147.2 28.5L155.2 20.5L155.2 36.5L147.2 44.5Z" />
				</g>
			</g>
			<g id="Layer">
				<path id="Layer" class="shp3" d="M139.2 20.5L155.2 20.5L155.2 36.5L139.2 36.5L139.2 20.5Z" />
			</g>
		</g>
	</g>
</svg>