<svg id="aa38342c-af80-49c7-a671-f57ffb11a8eb" data-name="Logos" xmlns="http://www.w3.org/2000/svg" viewBox="0 0 118.03 105.03"><title>Hopscotch-logo</title><polygon points="116.33 1 116.33 1 92.03 1 92.03 13 92.03 13.5 92.03 14 92.03 26.01 104.03 26.01 104.53 26.01 105.03 26.01 117.03 26.01 117.03 1.71 117.03 1 117.03 1 116.33 1" style="fill:#fff"/><polygon points="78.52 26.01 79.02 26.01 91.03 26.01 91.03 14 91.03 13.5 91.03 13 91.03 1.71 91.03 1 90.32 1 66.02 1 66.02 13 66.02 13.5 66.02 14 66.02 26.01 78.02 26.01 78.52 26.01" style="fill:#fff"/><polygon points="52.52 26.01 53.02 26.01 65.02 26.01 65.02 14 65.02 13.5 65.02 13 65.02 1.71 65.02 1 65.02 1 64.31 1 40.01 1 40.01 13 40.01 13.5 40.01 14 40.01 26.01 52.02 26.01 52.52 26.01" style="fill:#fff"/><rect x="14" y="14" width="12" height="12" style="fill:#fff"/><polygon points="13 14 1 14 1 38.3 13 26.3 13 14" style="fill:#fff"/><polygon points="28.06 11.25 38.3 1 14 1 14 13 26.3 13 28.06 11.25" style="fill:#fff"/><polygon points="13 1.71 1.71 13 13 13 13 1.71" style="fill:#fff"/><polygon points="26.01 27.01 13.71 27.01 1.71 39.01 26.01 39.01 26.01 27.01" style="fill:#fff"/><polygon points="39.01 14 39.01 13.5 39.01 13 39.01 1.71 37.96 2.76 27.71 13 27.21 13.5 27.01 13.71 27.01 14 27.01 26.01 39.01 26.01 39.01 14" style="fill:#fff"/><polygon points="38.3 27.01 27.01 27.01 27.01 38.3 28.06 37.25 38.3 27.01" style="fill:#fff"/><polygon points="116.33 27.01 105.03 27.01 104.53 27.01 104.03 27.01 92.03 27.01 92.03 39.01 92.03 39.51 92.03 40.01 92.03 52.02 104.03 52.02 104.53 52.02 105.03 52.02 117.03 52.02 117.03 27.71 117.03 27.01 117.03 27.01 116.33 27.01 116.33 27.01" style="fill:#fff"/><polygon points="78.52 52.02 79.02 52.02 91.03 52.02 91.03 40.01 91.03 39.51 91.03 39.01 91.03 27.71 91.03 27.01 91.03 27.01 90.32 27.01 79.02 27.01 78.52 27.01 78.02 27.01 66.02 27.01 66.02 39.01 66.02 39.51 66.02 40.01 66.02 52.02 78.02 52.02 78.52 52.02" style="fill:#fff"/><polygon points="27.01 64.31 37.25 54.07 39.01 52.31 39.01 40.01 27.01 40.01 27.01 64.31" style="fill:#fff"/><polygon points="39.01 27.71 37.96 28.77 27.71 39.01 39.01 39.01 39.01 27.71" style="fill:#fff"/><polygon points="39.72 53.02 39.51 53.22 39.01 53.72 37.96 54.77 27.71 65.02 39.01 65.02 39.51 65.02 40.01 65.02 52.02 65.02 52.02 53.02 40.01 53.02 39.72 53.02" style="fill:#fff"/><polygon points="53.02 64.31 64.31 53.02 53.02 53.02 53.02 64.31" style="fill:#fff"/><polygon points="65.02 52.02 65.02 40.01 65.02 39.51 65.02 39.01 65.02 27.71 65.02 27.01 64.31 27.01 53.02 27.01 52.52 27.01 52.02 27.01 40.01 27.01 40.01 39.01 40.01 39.51 40.01 40.01 40.01 52.02 52.02 52.02 52.52 52.02 53.02 52.02 65.02 52.02" style="fill:#fff"/><polygon points="79.73 91.03 104.03 91.03 104.03 79.02 91.73 79.02 79.73 91.03" style="fill:#fff"/><polygon points="105.03 90.32 116.33 79.02 105.03 79.02 105.03 90.32" style="fill:#fff"/><polygon points="116.33 53.02 105.03 53.02 104.53 53.02 104.03 53.02 92.03 53.02 92.03 65.02 92.03 65.52 92.03 66.02 92.03 78.02 104.03 78.02 104.53 78.02 105.03 78.02 117.03 78.02 117.03 53.72 117.03 53.02 116.33 53.02 116.33 53.02" style="fill:#fff"/><polygon points="64.81 78.52 65.02 78.31 65.02 78.02 65.02 66.02 53.02 66.02 53.02 78.02 53.02 78.52 53.02 79.02 53.02 90.32 64.31 79.02 64.81 78.52" style="fill:#fff"/><polygon points="65.02 53.72 53.72 65.02 65.02 65.02 65.02 53.72" style="fill:#fff"/><polygon points="53.72 91.03 78.02 91.03 78.02 79.02 65.73 79.02 53.72 91.03" style="fill:#fff"/><polygon points="79.02 79.02 79.02 90.32 90.32 79.02 79.02 79.02" style="fill:#fff"/><polygon points="91.03 78.02 91.03 66.02 91.03 65.52 91.03 65.02 91.03 53.72 91.03 53.02 91.03 53.02 90.32 53.02 79.02 53.02 78.52 53.02 78.02 53.02 66.02 53.02 66.02 65.02 66.02 65.52 66.02 66.02 66.02 78.02 78.02 78.02 78.52 78.02 79.02 78.02 91.03 78.02" style="fill:#fff"/><polygon points="26.01 79.02 14 79.02 14 103.32 26.01 91.32 26.01 79.02" style="fill:#fff"/><polygon points="26.01 66.73 14.71 78.02 26.01 78.02 26.01 66.73" style="fill:#fff"/><polygon points="14.71 104.03 39.01 104.03 39.01 92.03 26.71 92.03 14.71 104.03" style="fill:#fff"/><polygon points="40.01 103.32 51.31 92.03 40.01 92.03 40.01 103.32" style="fill:#fff"/><polygon points="51.31 66.02 51.31 66.02 40.01 66.02 39.51 66.02 39.01 66.02 27.01 66.02 27.01 78.02 27.01 78.52 27.01 79.02 27.01 90.32 27.01 91.03 27.01 91.03 27.71 91.03 27.71 91.03 39.01 91.03 39.51 91.03 40.01 91.03 52.02 91.03 52.02 79.02 52.02 78.52 52.02 78.02 52.02 66.73 52.02 66.02 52.02 66.02 51.31 66.02" style="fill:#fff"/><path d="M118,.31h0s0,0,0-.06l0,0a.38.38,0,0,0-.09-.09l0,0,0,0h0a.41.41,0,0,0-.19,0H13.44l-.06,0h-.07a.42.42,0,0,0-.16.11h0l-13,13h0a.42.42,0,0,0-.11.16.17.17,0,0,0,0,.07l0,.06s0,0,0,.06v26a.41.41,0,0,0,0,.19H0a.21.21,0,0,0,0,.06l0,.05a.76.76,0,0,0,.09.09l0,0,.06,0h0A.43.43,0,0,0,.5,40H26v25.3L13.15,78.17h0a.57.57,0,0,0-.11.16.15.15,0,0,0,0,.07.13.13,0,0,0,0,.06.14.14,0,0,0,0,.06v26a.58.58,0,0,0,0,.19h0l0,.06,0,0,.1.09,0,0,.05,0h0a.43.43,0,0,0,.19,0h26a.41.41,0,0,0,.19,0h0a.36.36,0,0,0,.16-.11h0L52.72,92h51.81a.58.58,0,0,0,.19,0h0a.46.46,0,0,0,.16-.11h0l13-13h0a.59.59,0,0,0,.1-.17s0,0,0-.06,0,0,0-.06,0,0,0-.07V.5A.58.58,0,0,0,118,.31Zm-13,90V79h11.3Zm-65,13V92h11.3ZM26,66.73V78H14.71Zm-13-65V13H1.71ZM116.33,1h.7V26H92V1Zm.7,77H92V53h25V78ZM14,79H26v12.3l-12,12ZM1,14H13V26.3L1,38.3Zm13,0H26V26H14Zm25-1V26H27V13.71l.2-.21.5-.5L28.77,12,39,1.71ZM27,27H38.3l-1,1L27,38.3Zm1.76,11L39,27.71V39H27.71ZM40,40V27H65V52H40Zm76.32-13h.7V52H92V27h24.3ZM53,53H64.31L53,64.31Zm12,.7V65H53.72ZM91,27V52H66V27H91ZM39.51,53.22l.21-.2H52V65H27.71l1.06-1L39,53.72ZM66,66V53H91V78H66ZM39.51,91H27V66H52V91H39.51ZM53,79V66H65v12.3l-.21.2-.5.5L53,90.32Zm26,0h11.3L79,90.32ZM91,1.71V26H66V1H91ZM65,1V26H40V1H65Zm-37,10.25L26.3,13H14V1H38.3ZM13.71,27H26V39H1.71ZM27,40H39v12.3l-1.76,1.76L27,64.31Zm-.3,52H39v12H14.71Zm39-13H78V91H53.72Zm26,0H104V91H79.73Z" style="fill:#1d1d1b"/><path d="M99.41,6.46h5.49a4.37,4.37,0,0,1,4.75,4.69A4.47,4.47,0,0,1,105,15.88h-1.55v4.67h-4Zm4.85,6.06a1.25,1.25,0,0,0,1.29-1.39,1.21,1.21,0,0,0-1.25-1.31h-.89v2.7Z" style="fill:#1d1d1b"/><path d="M96.92,39.49c0-4.07,3-7.29,7.61-7.29s7.61,3.22,7.61,7.29-3,7.33-7.61,7.33S96.92,43.62,96.92,39.49Zm4.19,0a3.43,3.43,0,1,0,6.84,0,3.43,3.43,0,1,0-6.84,0Z" style="fill:#1d1d1b"/><path d="M46.27,6.46h4v5.29h4.47V6.46h4V20.55h-4V15.28H50.28v5.27h-4Z" style="fill:#1d1d1b"/><path d="M70.91,13.48c0-4.06,3-7.29,7.61-7.29s7.61,3.23,7.61,7.29-3,7.33-7.61,7.33S70.91,17.61,70.91,13.48Zm4.19,0a3.43,3.43,0,1,0,6.85,0,3.43,3.43,0,1,0-6.85,0Z" style="fill:#1d1d1b"/><path d="M80.16,32.2a7.79,7.79,0,0,1,4.27,1.21l-1.11,3.5a4.57,4.57,0,0,0-3-1,3.65,3.65,0,0,0,0,7.29,4.57,4.57,0,0,0,3-1l1.11,3.5a7.7,7.7,0,0,1-4.27,1.21,7.31,7.31,0,1,1,0-14.62Z" style="fill:#1d1d1b"/><path d="M50.75,41.75a2.55,2.55,0,0,0,1.94,1.39c.62,0,.88-.27.88-.63,0-1.43-5.74-1.47-5.74-6,0-2.68,2-4.35,4.88-4.35a4.85,4.85,0,0,1,4.81,3.43L54.2,37.12c-.29-.59-.63-1.29-1.59-1.29-.49,0-.77.26-.77.64,0,1.57,5.78,1.49,5.78,5.74,0,2.7-1.79,4.61-5,4.61a5.42,5.42,0,0,1-5.16-3.42Z" style="fill:#1d1d1b"/><path d="M98.29,58.47h4v5.3h4.47v-5.3h4v14.1h-4V67.29H102.3v5.28h-4Z" style="fill:#1d1d1b"/><path d="M80.16,58.21a7.7,7.7,0,0,1,4.27,1.21l-1.11,3.5a4.57,4.57,0,0,0-3-1.05,3.65,3.65,0,0,0,0,7.29,4.57,4.57,0,0,0,3-1l1.11,3.5a7.79,7.79,0,0,1-4.27,1.21,7.31,7.31,0,1,1,0-14.62Z" style="fill:#1d1d1b"/><path d="M37.49,75H34.61v-3.5h9.8V75H41.49V85.57h-4Z" style="fill:#1d1d1b"/></svg>