<svg id="b17291fe-02bc-428d-b206-ef801b457e1f" data-name="Logos" xmlns="http://www.w3.org/2000/svg" viewBox="0 0 209.95 209.95"><title>Artboard 19</title><rect x="78.86" y="78.86" width="52.24" height="52.24" transform="translate(209.95 209.95) rotate(180)" style="stroke:#fff;stroke-linecap:round;stroke-linejoin:round"/><rect x="52.74" y="104.97" width="52.24" height="52.24" transform="translate(157.71 262.19) rotate(180)" style="stroke:#fff;stroke-linecap:round;stroke-linejoin:round"/><polygon points="52.74 157.21 52.74 104.97 78.86 78.86 78.86 131.09 52.74 157.21" style="stroke:#fff;stroke-linecap:round;stroke-linejoin:round"/><polygon points="104.97 104.97 52.74 104.97 78.86 78.86 131.09 78.86 104.97 104.97" style="stroke:#fff;stroke-linecap:round;stroke-linejoin:round"/><polygon points="52.74 157.21 104.97 157.21 131.09 131.09 78.86 131.09 52.74 157.21" style="stroke:#fff;stroke-linecap:round;stroke-linejoin:round"/><polygon points="104.97 157.21 104.97 104.97 131.09 78.86 131.09 131.09 104.97 157.21" style="stroke:#fff;stroke-linecap:round;stroke-linejoin:round"/><rect x="78.86" y="78.86" width="52.24" height="52.24" transform="translate(209.95 209.95) rotate(180)" style="stroke:#fff;stroke-linecap:round;stroke-linejoin:round"/><rect x="104.97" y="0.5" width="52.24" height="52.24" transform="translate(262.18 53.24) rotate(180)" style="stroke:#fff;stroke-linecap:round;stroke-linejoin:round"/><rect x="78.86" y="26.62" width="52.24" height="52.24" transform="translate(209.95 105.47) rotate(180)" style="stroke:#fff;stroke-linecap:round;stroke-linejoin:round"/><polygon points="78.86 78.86 78.86 26.62 104.97 0.5 104.97 52.74 78.86 78.86" style="stroke:#fff;stroke-linecap:round;stroke-linejoin:round"/><polygon points="131.09 26.62 78.86 26.62 104.97 0.5 157.21 0.5 131.09 26.62" style="stroke:#fff;stroke-linecap:round;stroke-linejoin:round"/><polygon points="78.86 78.86 131.09 78.86 157.21 52.74 104.97 52.74 78.86 78.86" style="stroke:#fff;stroke-linecap:round;stroke-linejoin:round"/><polygon points="131.09 78.86 131.09 26.62 157.21 0.5 157.21 52.74 131.09 78.86" style="stroke:#fff;stroke-linecap:round;stroke-linejoin:round"/><rect x="104.97" y="0.5" width="52.24" height="52.24" transform="translate(262.18 53.24) rotate(180)" style="fill:none;stroke:#fff;stroke-linecap:round;stroke-linejoin:round"/><rect x="131.09" y="131.09" width="52.24" height="52.24" transform="translate(314.42 314.42) rotate(180)" style="stroke:#fff;stroke-linecap:round;stroke-linejoin:round"/><rect x="104.97" y="157.21" width="52.24" height="52.24" transform="translate(262.18 366.66) rotate(180)" style="stroke:#fff;stroke-linecap:round;stroke-linejoin:round"/><polygon points="104.97 209.45 104.97 157.21 131.09 131.09 131.09 183.33 104.97 209.45" style="stroke:#fff;stroke-linecap:round;stroke-linejoin:round"/><polygon points="157.21 157.21 104.97 157.21 131.09 131.09 183.33 131.09 157.21 157.21" style="stroke:#fff;stroke-linecap:round;stroke-linejoin:round"/><polygon points="104.97 209.45 157.21 209.45 183.33 183.33 131.09 183.33 104.97 209.45" style="stroke:#fff;stroke-linecap:round;stroke-linejoin:round"/><polygon points="157.21 209.45 157.21 157.21 183.33 131.09 183.33 183.33 157.21 209.45" style="stroke:#fff;stroke-linecap:round;stroke-linejoin:round"/><rect x="131.09" y="131.09" width="52.24" height="52.24" transform="translate(314.42 314.42) rotate(180)" style="fill:none;stroke:#fff;stroke-linecap:round;stroke-linejoin:round"/><rect x="157.21" y="52.74" width="52.24" height="52.24" transform="translate(366.66 157.71) rotate(180)" style="stroke:#fff;stroke-linecap:round;stroke-linejoin:round"/><rect x="131.09" y="78.86" width="52.24" height="52.24" transform="translate(314.42 209.95) rotate(180)" style="stroke:#fff;stroke-linecap:round;stroke-linejoin:round"/><polygon points="131.09 131.09 131.09 78.86 157.21 52.74 157.21 104.97 131.09 131.09" style="stroke:#fff;stroke-linecap:round;stroke-linejoin:round"/><polygon points="183.33 78.86 131.09 78.86 157.21 52.74 209.45 52.74 183.33 78.86" style="stroke:#fff;stroke-linecap:round;stroke-linejoin:round"/><polygon points="131.09 131.09 183.33 131.09 209.45 104.97 157.21 104.97 131.09 131.09" style="stroke:#fff;stroke-linecap:round;stroke-linejoin:round"/><polygon points="183.33 131.09 183.33 78.86 209.45 52.74 209.45 104.97 183.33 131.09" style="stroke:#fff;stroke-linecap:round;stroke-linejoin:round"/><rect x="157.21" y="52.74" width="52.24" height="52.24" transform="translate(366.66 157.71) rotate(180)" style="fill:none;stroke:#fff;stroke-linecap:round;stroke-linejoin:round"/><rect x="26.62" y="26.62" width="52.24" height="52.24" transform="translate(105.47 105.47) rotate(180)" style="stroke:#fff;stroke-linecap:round;stroke-linejoin:round"/><rect x="0.5" y="52.74" width="52.24" height="52.24" transform="translate(53.24 157.71) rotate(180)" style="stroke:#fff;stroke-linecap:round;stroke-linejoin:round"/><polygon points="0.5 104.97 0.5 52.74 26.62 26.62 26.62 78.86 0.5 104.97" style="stroke:#fff;stroke-linecap:round;stroke-linejoin:round"/><polygon points="52.74 52.74 0.5 52.74 26.62 26.62 78.86 26.62 52.74 52.74" style="stroke:#fff;stroke-linecap:round;stroke-linejoin:round"/><polygon points="0.5 104.97 52.74 104.97 78.86 78.86 26.62 78.86 0.5 104.97" style="stroke:#fff;stroke-linecap:round;stroke-linejoin:round"/><polygon points="52.74 104.97 52.74 52.74 78.86 26.62 78.86 78.86 52.74 104.97" style="stroke:#fff;stroke-linecap:round;stroke-linejoin:round"/><rect x="26.62" y="26.62" width="52.24" height="52.24" transform="translate(105.47 105.47) rotate(180)" style="fill:none;stroke:#fff;stroke-linecap:round;stroke-linejoin:round"/><polygon points="131.09 52.74 131.09 78.86 104.97 78.86 104.97 52.74 78.86 52.74 78.86 131.09 104.97 131.09 104.97 104.97 131.09 104.97 131.09 131.09 157.21 131.09 157.21 52.74 131.09 52.74" style="fill:#fff;stroke:#fff;stroke-linecap:round;stroke-linejoin:round"/></svg>